<svg width="24" height="24" viewBox="0 0 24 24" xmlns="http://www.w3.org/2000/svg" fill="none"><path d="M8 8v-3c0-.265.105-.52.293-.707.188-.188.442-.293.707-.293h10c.265 0 .52.105.707.293.188.188.293.442.293.707v10c0 .265-.105.52-.293.707-.188.188-.442.293-.707.293h-3v3c0 .552-.45 1-1.007 1h-9.986c-.132.001-.263-.024-.385-.074-.122-.05-.233-.123-.327-.216s-.168-.203-.219-.325c-.051-.122-.077-.252-.077-.384l.003-10c0-.552.45-1 1.007-1h2.99zm-1.997 2l-.003 8h8v-8h-7.997zm3.997-2h6v6h2v-8h-8v2z" fill="#787C80"/></svg>