<svg width="375" height="4223" viewBox="0 0 375 4223" fill="none" xmlns="http://www.w3.org/2000/svg">
<path d="M325 3921C344.83 3921 364.465 3924.91 382.785 3932.49C401.105 3940.08 417.751 3951.21 431.773 3965.23C445.795 3979.25 456.917 3995.89 464.506 4014.21C472.094 4032.53 476 4052.17 476 4072C476 4091.83 472.094 4111.47 464.506 4129.79C456.917 4148.11 445.795 4164.75 431.773 4178.77C417.751 4192.79 401.105 4203.92 382.785 4211.51C364.465 4219.09 344.83 4223 325 4223L325 4072L325 3921Z" fill="#1B27C1"/>
<path d="M325 3990C335.768 3990 346.431 3992.12 356.38 3996.24C366.329 4000.36 375.368 4006.4 382.983 4014.02C390.597 4021.63 396.637 4030.67 400.758 4040.62C404.879 4050.57 407 4061.23 407 4072C407 4082.77 404.879 4093.43 400.758 4103.38C396.637 4113.33 390.597 4122.37 382.983 4129.98C375.368 4137.6 366.329 4143.64 356.38 4147.76C346.431 4151.88 335.768 4154 325 4154L325 4072L325 3990Z" fill="#3B52A8"/>
<path d="M6.99998 3720L6.99998 3849L135 3720L6.99998 3720Z" fill="#0454BE"/>
<path d="M6.00001 4047L6 4140L98 4047L6.00001 4047Z" fill="#0454BE"/>
<g opacity="0.3">
<circle cx="82.531" cy="3998.53" r="2.531" fill="#F4BEBD"/>
<ellipse cx="97.7184" cy="3998.53" rx="2.531" ry="2.531" fill="#F4BEBD"/>
<ellipse cx="112.902" cy="3998.53" rx="2.531" ry="2.531" fill="#F4BEBD"/>
<ellipse cx="128.089" cy="3998.53" rx="2.531" ry="2.531" fill="#F4BEBD"/>
<ellipse cx="143.275" cy="3998.53" rx="2.53099" ry="2.531" fill="#F4BEBD"/>
<ellipse cx="158.46" cy="3998.53" rx="2.531" ry="2.531" fill="#F4BEBD"/>
<ellipse cx="173.646" cy="3998.53" rx="2.53098" ry="2.531" fill="#F4BEBD"/>
<ellipse cx="188.833" cy="3998.53" rx="2.53099" ry="2.531" fill="#F4BEBD"/>
<ellipse cx="204.019" cy="3998.53" rx="2.531" ry="2.531" fill="#F4BEBD"/>
<ellipse cx="219.204" cy="3998.53" rx="2.531" ry="2.531" fill="#F4BEBD"/>
<ellipse cx="234.391" cy="3998.53" rx="2.53099" ry="2.531" fill="#F4BEBD"/>
<ellipse cx="82.531" cy="4013.72" rx="2.531" ry="2.531" fill="#F4BEBD"/>
<ellipse cx="97.7184" cy="4013.72" rx="2.531" ry="2.531" fill="#F4BEBD"/>
<ellipse cx="112.902" cy="4013.72" rx="2.531" ry="2.531" fill="#F4BEBD"/>
<ellipse cx="128.089" cy="4013.72" rx="2.531" ry="2.531" fill="#F4BEBD"/>
<ellipse cx="143.275" cy="4013.72" rx="2.53099" ry="2.531" fill="#F4BEBD"/>
<ellipse cx="158.46" cy="4013.72" rx="2.531" ry="2.531" fill="#F4BEBD"/>
<ellipse cx="173.646" cy="4013.72" rx="2.53098" ry="2.531" fill="#F4BEBD"/>
<ellipse cx="188.833" cy="4013.72" rx="2.53099" ry="2.531" fill="#F4BEBD"/>
<ellipse cx="204.019" cy="4013.72" rx="2.531" ry="2.531" fill="#F4BEBD"/>
<ellipse cx="219.204" cy="4013.72" rx="2.531" ry="2.531" fill="#F4BEBD"/>
<ellipse cx="234.391" cy="4013.72" rx="2.53099" ry="2.531" fill="#F4BEBD"/>
<ellipse cx="82.531" cy="4028.9" rx="2.531" ry="2.53099" fill="#F4BEBD"/>
<ellipse cx="97.7184" cy="4028.9" rx="2.531" ry="2.53099" fill="#F4BEBD"/>
<ellipse cx="112.902" cy="4028.9" rx="2.531" ry="2.53099" fill="#F4BEBD"/>
<ellipse cx="128.089" cy="4028.9" rx="2.531" ry="2.53099" fill="#F4BEBD"/>
<ellipse cx="143.275" cy="4028.9" rx="2.53099" ry="2.53099" fill="#F4BEBD"/>
<ellipse cx="158.46" cy="4028.9" rx="2.531" ry="2.53099" fill="#F4BEBD"/>
<ellipse cx="173.646" cy="4028.9" rx="2.53098" ry="2.53099" fill="#F4BEBD"/>
<circle cx="188.833" cy="4028.9" r="2.53099" fill="#F4BEBD"/>
<ellipse cx="204.019" cy="4028.9" rx="2.531" ry="2.53099" fill="#F4BEBD"/>
<ellipse cx="219.204" cy="4028.9" rx="2.531" ry="2.53099" fill="#F4BEBD"/>
<ellipse cx="234.391" cy="4028.9" rx="2.53099" ry="2.53099" fill="#F4BEBD"/>
<ellipse cx="82.531" cy="4044.09" rx="2.531" ry="2.53099" fill="#F4BEBD"/>
<ellipse cx="97.7184" cy="4044.09" rx="2.531" ry="2.53099" fill="#F4BEBD"/>
<ellipse cx="112.902" cy="4044.09" rx="2.531" ry="2.53099" fill="#F4BEBD"/>
<ellipse cx="128.089" cy="4044.09" rx="2.531" ry="2.53099" fill="#F4BEBD"/>
<ellipse cx="143.275" cy="4044.09" rx="2.53099" ry="2.53099" fill="#F4BEBD"/>
<ellipse cx="158.46" cy="4044.09" rx="2.531" ry="2.53099" fill="#F4BEBD"/>
<ellipse cx="173.646" cy="4044.09" rx="2.53098" ry="2.53099" fill="#F4BEBD"/>
<circle cx="188.833" cy="4044.09" r="2.53099" fill="#F4BEBD"/>
<ellipse cx="204.019" cy="4044.09" rx="2.531" ry="2.53099" fill="#F4BEBD"/>
<ellipse cx="219.204" cy="4044.09" rx="2.531" ry="2.53099" fill="#F4BEBD"/>
<ellipse cx="234.391" cy="4044.09" rx="2.53099" ry="2.53099" fill="#F4BEBD"/>
<ellipse cx="82.531" cy="4059.28" rx="2.531" ry="2.531" fill="#F4BEBD"/>
<ellipse cx="97.7184" cy="4059.28" rx="2.531" ry="2.531" fill="#F4BEBD"/>
<ellipse cx="112.902" cy="4059.28" rx="2.531" ry="2.531" fill="#F4BEBD"/>
<ellipse cx="128.089" cy="4059.28" rx="2.531" ry="2.531" fill="#F4BEBD"/>
<ellipse cx="143.275" cy="4059.28" rx="2.53099" ry="2.531" fill="#F4BEBD"/>
<ellipse cx="158.46" cy="4059.28" rx="2.531" ry="2.531" fill="#F4BEBD"/>
<ellipse cx="173.646" cy="4059.28" rx="2.53098" ry="2.531" fill="#F4BEBD"/>
<ellipse cx="188.833" cy="4059.28" rx="2.53099" ry="2.531" fill="#F4BEBD"/>
<ellipse cx="204.019" cy="4059.28" rx="2.531" ry="2.531" fill="#F4BEBD"/>
<ellipse cx="219.204" cy="4059.28" rx="2.531" ry="2.531" fill="#F4BEBD"/>
<ellipse cx="234.391" cy="4059.28" rx="2.53099" ry="2.531" fill="#F4BEBD"/>
<ellipse cx="82.531" cy="4074.46" rx="2.531" ry="2.531" fill="#F4BEBD"/>
<ellipse cx="97.7184" cy="4074.46" rx="2.531" ry="2.531" fill="#F4BEBD"/>
<circle cx="112.902" cy="4074.46" r="2.531" fill="#F4BEBD"/>
<circle cx="128.089" cy="4074.46" r="2.531" fill="#F4BEBD"/>
<ellipse cx="143.275" cy="4074.46" rx="2.53099" ry="2.531" fill="#F4BEBD"/>
<circle cx="158.46" cy="4074.46" r="2.531" fill="#F4BEBD"/>
<ellipse cx="173.646" cy="4074.46" rx="2.53098" ry="2.531" fill="#F4BEBD"/>
<ellipse cx="188.833" cy="4074.46" rx="2.53099" ry="2.531" fill="#F4BEBD"/>
<circle cx="204.019" cy="4074.46" r="2.531" fill="#F4BEBD"/>
<circle cx="219.204" cy="4074.46" r="2.531" fill="#F4BEBD"/>
<ellipse cx="234.391" cy="4074.46" rx="2.53099" ry="2.531" fill="#F4BEBD"/>
<ellipse cx="82.531" cy="4089.65" rx="2.531" ry="2.53098" fill="#F4BEBD"/>
<ellipse cx="97.7184" cy="4089.65" rx="2.531" ry="2.53098" fill="#F4BEBD"/>
<ellipse cx="112.902" cy="4089.65" rx="2.531" ry="2.53098" fill="#F4BEBD"/>
<ellipse cx="128.089" cy="4089.65" rx="2.531" ry="2.53098" fill="#F4BEBD"/>
<ellipse cx="143.275" cy="4089.65" rx="2.53099" ry="2.53098" fill="#F4BEBD"/>
<ellipse cx="158.46" cy="4089.65" rx="2.531" ry="2.53098" fill="#F4BEBD"/>
<circle cx="173.646" cy="4089.65" r="2.53098" fill="#F4BEBD"/>
<ellipse cx="188.833" cy="4089.65" rx="2.53099" ry="2.53098" fill="#F4BEBD"/>
<ellipse cx="204.019" cy="4089.65" rx="2.531" ry="2.53098" fill="#F4BEBD"/>
<ellipse cx="219.204" cy="4089.65" rx="2.531" ry="2.53098" fill="#F4BEBD"/>
<ellipse cx="234.391" cy="4089.65" rx="2.53099" ry="2.53098" fill="#F4BEBD"/>
<ellipse cx="82.531" cy="4104.83" rx="2.531" ry="2.531" fill="#F4BEBD"/>
<ellipse cx="97.7184" cy="4104.83" rx="2.531" ry="2.531" fill="#F4BEBD"/>
<ellipse cx="112.902" cy="4104.83" rx="2.531" ry="2.531" fill="#F4BEBD"/>
<ellipse cx="128.089" cy="4104.83" rx="2.531" ry="2.531" fill="#F4BEBD"/>
<ellipse cx="143.275" cy="4104.83" rx="2.53099" ry="2.531" fill="#F4BEBD"/>
<ellipse cx="158.46" cy="4104.83" rx="2.531" ry="2.531" fill="#F4BEBD"/>
<ellipse cx="173.646" cy="4104.83" rx="2.53098" ry="2.531" fill="#F4BEBD"/>
<ellipse cx="188.833" cy="4104.83" rx="2.53099" ry="2.531" fill="#F4BEBD"/>
<ellipse cx="204.019" cy="4104.83" rx="2.531" ry="2.531" fill="#F4BEBD"/>
<ellipse cx="219.204" cy="4104.83" rx="2.531" ry="2.531" fill="#F4BEBD"/>
<ellipse cx="234.391" cy="4104.83" rx="2.53099" ry="2.531" fill="#F4BEBD"/>
<ellipse cx="82.531" cy="4120.02" rx="2.531" ry="2.53099" fill="#F4BEBD"/>
<ellipse cx="97.7184" cy="4120.02" rx="2.531" ry="2.53099" fill="#F4BEBD"/>
<ellipse cx="112.902" cy="4120.02" rx="2.531" ry="2.53099" fill="#F4BEBD"/>
<ellipse cx="128.089" cy="4120.02" rx="2.531" ry="2.53099" fill="#F4BEBD"/>
<circle cx="143.275" cy="4120.02" r="2.53099" fill="#F4BEBD"/>
<ellipse cx="158.46" cy="4120.02" rx="2.531" ry="2.53099" fill="#F4BEBD"/>
<ellipse cx="173.646" cy="4120.02" rx="2.53098" ry="2.53099" fill="#F4BEBD"/>
<ellipse cx="188.833" cy="4120.02" rx="2.53099" ry="2.53099" fill="#F4BEBD"/>
<ellipse cx="204.019" cy="4120.02" rx="2.531" ry="2.53099" fill="#F4BEBD"/>
<ellipse cx="219.204" cy="4120.02" rx="2.531" ry="2.53099" fill="#F4BEBD"/>
<circle cx="234.391" cy="4120.02" r="2.53099" fill="#F4BEBD"/>
<ellipse cx="82.531" cy="4135.2" rx="2.531" ry="2.53099" fill="#F4BEBD"/>
<ellipse cx="97.7184" cy="4135.2" rx="2.531" ry="2.53099" fill="#F4BEBD"/>
<ellipse cx="112.902" cy="4135.2" rx="2.531" ry="2.53099" fill="#F4BEBD"/>
<ellipse cx="128.089" cy="4135.2" rx="2.531" ry="2.53099" fill="#F4BEBD"/>
<circle cx="143.275" cy="4135.2" r="2.53099" fill="#F4BEBD"/>
<ellipse cx="158.46" cy="4135.2" rx="2.531" ry="2.53099" fill="#F4BEBD"/>
<ellipse cx="173.646" cy="4135.2" rx="2.53098" ry="2.53099" fill="#F4BEBD"/>
<ellipse cx="188.833" cy="4135.2" rx="2.53099" ry="2.53099" fill="#F4BEBD"/>
<ellipse cx="204.019" cy="4135.2" rx="2.531" ry="2.53099" fill="#F4BEBD"/>
<ellipse cx="219.204" cy="4135.2" rx="2.531" ry="2.53099" fill="#F4BEBD"/>
<circle cx="234.391" cy="4135.2" r="2.53099" fill="#F4BEBD"/>
<ellipse cx="82.531" cy="4150.39" rx="2.531" ry="2.53099" fill="#F4BEBD"/>
<ellipse cx="97.7184" cy="4150.39" rx="2.531" ry="2.53099" fill="#F4BEBD"/>
<ellipse cx="112.902" cy="4150.39" rx="2.531" ry="2.53099" fill="#F4BEBD"/>
<ellipse cx="128.089" cy="4150.39" rx="2.531" ry="2.53099" fill="#F4BEBD"/>
<circle cx="143.275" cy="4150.39" r="2.53099" fill="#F4BEBD"/>
<ellipse cx="158.46" cy="4150.39" rx="2.531" ry="2.53099" fill="#F4BEBD"/>
<ellipse cx="173.646" cy="4150.39" rx="2.53098" ry="2.53099" fill="#F4BEBD"/>
<ellipse cx="188.833" cy="4150.39" rx="2.53099" ry="2.53099" fill="#F4BEBD"/>
<ellipse cx="204.019" cy="4150.39" rx="2.531" ry="2.53099" fill="#F4BEBD"/>
<ellipse cx="219.204" cy="4150.39" rx="2.531" ry="2.53099" fill="#F4BEBD"/>
<circle cx="234.391" cy="4150.39" r="2.53099" fill="#F4BEBD"/>
</g>
<ellipse opacity="0.2" cx="277.5" cy="4010.5" rx="46.5" ry="45.5" transform="rotate(-90 277.5 4010.5)" fill="#F8F9FF"/>
<path d="M374 3725L374 3661L310 3725L374 3725Z" fill="#0454BE"/>
<path d="M3.8147e-06 3563L9.73457e-07 3628L64 3563L3.8147e-06 3563Z" fill="#0454BE"/>
<g opacity="0.3">
<ellipse cx="23.0788" cy="3049.87" rx="5.86805" ry="5.86804" fill="#F4BEBD"/>
<ellipse cx="58.2826" cy="3049.87" rx="5.86804" ry="5.86804" fill="#F4BEBD"/>
<ellipse cx="93.4934" cy="3049.87" rx="5.86805" ry="5.86804" fill="#F4BEBD"/>
<ellipse cx="128.703" cy="3049.87" rx="5.86803" ry="5.86804" fill="#F4BEBD"/>
<ellipse cx="163.908" cy="3049.87" rx="5.86807" ry="5.86804" fill="#F4BEBD"/>
<ellipse cx="199.114" cy="3049.87" rx="5.868" ry="5.86804" fill="#F4BEBD"/>
<ellipse cx="234.325" cy="3049.87" rx="5.86805" ry="5.86804" fill="#F4BEBD"/>
<ellipse cx="269.536" cy="3049.87" rx="5.86806" ry="5.86804" fill="#F4BEBD"/>
<ellipse cx="304.743" cy="3049.87" rx="5.86803" ry="5.86804" fill="#F4BEBD"/>
<ellipse cx="339.951" cy="3049.87" rx="5.86804" ry="5.86804" fill="#F4BEBD"/>
<ellipse cx="23.0788" cy="3085.08" rx="5.86805" ry="5.86805" fill="#F4BEBD"/>
<ellipse cx="58.2826" cy="3085.08" rx="5.86804" ry="5.86805" fill="#F4BEBD"/>
<ellipse cx="93.4934" cy="3085.08" rx="5.86805" ry="5.86805" fill="#F4BEBD"/>
<ellipse cx="128.703" cy="3085.08" rx="5.86803" ry="5.86805" fill="#F4BEBD"/>
<ellipse cx="163.908" cy="3085.08" rx="5.86807" ry="5.86805" fill="#F4BEBD"/>
<ellipse cx="199.114" cy="3085.08" rx="5.868" ry="5.86805" fill="#F4BEBD"/>
<ellipse cx="234.325" cy="3085.08" rx="5.86805" ry="5.86805" fill="#F4BEBD"/>
<ellipse cx="269.536" cy="3085.08" rx="5.86806" ry="5.86805" fill="#F4BEBD"/>
<ellipse cx="304.743" cy="3085.08" rx="5.86803" ry="5.86805" fill="#F4BEBD"/>
<ellipse cx="339.951" cy="3085.08" rx="5.86804" ry="5.86805" fill="#F4BEBD"/>
<ellipse cx="23.0788" cy="3120.28" rx="5.86805" ry="5.86804" fill="#F4BEBD"/>
<ellipse cx="58.2826" cy="3120.28" rx="5.86804" ry="5.86804" fill="#F4BEBD"/>
<ellipse cx="93.4934" cy="3120.28" rx="5.86805" ry="5.86804" fill="#F4BEBD"/>
<ellipse cx="128.703" cy="3120.28" rx="5.86803" ry="5.86804" fill="#F4BEBD"/>
<ellipse cx="163.908" cy="3120.28" rx="5.86807" ry="5.86804" fill="#F4BEBD"/>
<ellipse cx="199.114" cy="3120.28" rx="5.868" ry="5.86804" fill="#F4BEBD"/>
<ellipse cx="234.325" cy="3120.28" rx="5.86805" ry="5.86804" fill="#F4BEBD"/>
<ellipse cx="269.536" cy="3120.28" rx="5.86806" ry="5.86804" fill="#F4BEBD"/>
<ellipse cx="304.743" cy="3120.28" rx="5.86803" ry="5.86804" fill="#F4BEBD"/>
<ellipse cx="339.951" cy="3120.28" rx="5.86804" ry="5.86804" fill="#F4BEBD"/>
<ellipse cx="23.0788" cy="3155.49" rx="5.86805" ry="5.86804" fill="#F4BEBD"/>
<ellipse cx="58.2826" cy="3155.49" rx="5.86804" ry="5.86804" fill="#F4BEBD"/>
<ellipse cx="93.4934" cy="3155.49" rx="5.86805" ry="5.86804" fill="#F4BEBD"/>
<ellipse cx="128.703" cy="3155.49" rx="5.86803" ry="5.86804" fill="#F4BEBD"/>
<ellipse cx="163.908" cy="3155.49" rx="5.86807" ry="5.86804" fill="#F4BEBD"/>
<ellipse cx="199.114" cy="3155.49" rx="5.868" ry="5.86804" fill="#F4BEBD"/>
<ellipse cx="234.325" cy="3155.49" rx="5.86805" ry="5.86804" fill="#F4BEBD"/>
<ellipse cx="269.536" cy="3155.49" rx="5.86806" ry="5.86804" fill="#F4BEBD"/>
<ellipse cx="304.743" cy="3155.49" rx="5.86803" ry="5.86804" fill="#F4BEBD"/>
<ellipse cx="339.951" cy="3155.49" rx="5.86804" ry="5.86804" fill="#F4BEBD"/>
<ellipse cx="23.0788" cy="3190.7" rx="5.86805" ry="5.86806" fill="#F4BEBD"/>
<ellipse cx="58.2826" cy="3190.7" rx="5.86804" ry="5.86806" fill="#F4BEBD"/>
<ellipse cx="93.4934" cy="3190.7" rx="5.86805" ry="5.86806" fill="#F4BEBD"/>
<ellipse cx="128.703" cy="3190.7" rx="5.86803" ry="5.86806" fill="#F4BEBD"/>
<ellipse cx="163.908" cy="3190.7" rx="5.86807" ry="5.86806" fill="#F4BEBD"/>
<ellipse cx="199.114" cy="3190.7" rx="5.868" ry="5.86806" fill="#F4BEBD"/>
<ellipse cx="234.325" cy="3190.7" rx="5.86805" ry="5.86806" fill="#F4BEBD"/>
<ellipse cx="269.536" cy="3190.7" rx="5.86806" ry="5.86806" fill="#F4BEBD"/>
<ellipse cx="304.743" cy="3190.7" rx="5.86803" ry="5.86806" fill="#F4BEBD"/>
<ellipse cx="339.951" cy="3190.7" rx="5.86804" ry="5.86806" fill="#F4BEBD"/>
<circle cx="23.0788" cy="3225.91" r="5.86805" fill="#F4BEBD"/>
<ellipse cx="58.2826" cy="3225.91" rx="5.86804" ry="5.86805" fill="#F4BEBD"/>
<circle cx="93.4934" cy="3225.91" r="5.86805" fill="#F4BEBD"/>
<ellipse cx="128.703" cy="3225.91" rx="5.86803" ry="5.86805" fill="#F4BEBD"/>
<ellipse cx="163.908" cy="3225.91" rx="5.86807" ry="5.86805" fill="#F4BEBD"/>
<ellipse cx="199.114" cy="3225.91" rx="5.868" ry="5.86805" fill="#F4BEBD"/>
<circle cx="234.325" cy="3225.91" r="5.86805" fill="#F4BEBD"/>
<ellipse cx="269.536" cy="3225.91" rx="5.86806" ry="5.86805" fill="#F4BEBD"/>
<ellipse cx="304.743" cy="3225.91" rx="5.86803" ry="5.86805" fill="#F4BEBD"/>
<ellipse cx="339.951" cy="3225.91" rx="5.86804" ry="5.86805" fill="#F4BEBD"/>
<ellipse cx="23.0788" cy="3261.12" rx="5.86805" ry="5.86802" fill="#F4BEBD"/>
<ellipse cx="58.2826" cy="3261.12" rx="5.86804" ry="5.86802" fill="#F4BEBD"/>
<ellipse cx="93.4934" cy="3261.12" rx="5.86805" ry="5.86802" fill="#F4BEBD"/>
<ellipse cx="128.703" cy="3261.12" rx="5.86803" ry="5.86802" fill="#F4BEBD"/>
<ellipse cx="163.908" cy="3261.12" rx="5.86807" ry="5.86802" fill="#F4BEBD"/>
<ellipse cx="199.114" cy="3261.12" rx="5.868" ry="5.86802" fill="#F4BEBD"/>
<ellipse cx="234.325" cy="3261.12" rx="5.86805" ry="5.86802" fill="#F4BEBD"/>
<ellipse cx="269.536" cy="3261.12" rx="5.86806" ry="5.86802" fill="#F4BEBD"/>
<ellipse cx="304.743" cy="3261.12" rx="5.86803" ry="5.86802" fill="#F4BEBD"/>
<ellipse cx="339.951" cy="3261.12" rx="5.86804" ry="5.86802" fill="#F4BEBD"/>
<ellipse cx="23.0788" cy="3296.33" rx="5.86805" ry="5.86804" fill="#F4BEBD"/>
<circle cx="58.2826" cy="3296.33" r="5.86804" fill="#F4BEBD"/>
<ellipse cx="93.4934" cy="3296.33" rx="5.86805" ry="5.86804" fill="#F4BEBD"/>
<ellipse cx="128.703" cy="3296.33" rx="5.86803" ry="5.86804" fill="#F4BEBD"/>
<ellipse cx="163.908" cy="3296.33" rx="5.86807" ry="5.86804" fill="#F4BEBD"/>
<ellipse cx="199.114" cy="3296.33" rx="5.868" ry="5.86804" fill="#F4BEBD"/>
<ellipse cx="234.325" cy="3296.33" rx="5.86805" ry="5.86804" fill="#F4BEBD"/>
<ellipse cx="269.536" cy="3296.33" rx="5.86806" ry="5.86804" fill="#F4BEBD"/>
<ellipse cx="304.743" cy="3296.33" rx="5.86803" ry="5.86804" fill="#F4BEBD"/>
<circle cx="339.951" cy="3296.33" r="5.86804" fill="#F4BEBD"/>
<ellipse cx="23.0788" cy="3331.53" rx="5.86805" ry="5.86804" fill="#F4BEBD"/>
<circle cx="58.2826" cy="3331.53" r="5.86804" fill="#F4BEBD"/>
<ellipse cx="93.4934" cy="3331.53" rx="5.86805" ry="5.86804" fill="#F4BEBD"/>
<ellipse cx="128.703" cy="3331.53" rx="5.86803" ry="5.86804" fill="#F4BEBD"/>
<ellipse cx="163.908" cy="3331.53" rx="5.86807" ry="5.86804" fill="#F4BEBD"/>
<ellipse cx="199.114" cy="3331.53" rx="5.868" ry="5.86804" fill="#F4BEBD"/>
<ellipse cx="234.325" cy="3331.53" rx="5.86805" ry="5.86804" fill="#F4BEBD"/>
<ellipse cx="269.536" cy="3331.53" rx="5.86806" ry="5.86804" fill="#F4BEBD"/>
<ellipse cx="304.743" cy="3331.53" rx="5.86803" ry="5.86804" fill="#F4BEBD"/>
<circle cx="339.951" cy="3331.53" r="5.86804" fill="#F4BEBD"/>
<ellipse cx="23.0788" cy="3366.74" rx="5.86805" ry="5.86806" fill="#F4BEBD"/>
<ellipse cx="58.2826" cy="3366.74" rx="5.86804" ry="5.86806" fill="#F4BEBD"/>
<ellipse cx="93.4934" cy="3366.74" rx="5.86805" ry="5.86806" fill="#F4BEBD"/>
<ellipse cx="128.703" cy="3366.74" rx="5.86803" ry="5.86806" fill="#F4BEBD"/>
<ellipse cx="163.908" cy="3366.74" rx="5.86807" ry="5.86806" fill="#F4BEBD"/>
<ellipse cx="199.114" cy="3366.74" rx="5.868" ry="5.86806" fill="#F4BEBD"/>
<ellipse cx="234.325" cy="3366.74" rx="5.86805" ry="5.86806" fill="#F4BEBD"/>
<circle cx="269.536" cy="3366.74" r="5.86806" fill="#F4BEBD"/>
<ellipse cx="304.743" cy="3366.74" rx="5.86803" ry="5.86806" fill="#F4BEBD"/>
<ellipse cx="339.951" cy="3366.74" rx="5.86804" ry="5.86806" fill="#F4BEBD"/>
<ellipse cx="23.0788" cy="3401.95" rx="5.86805" ry="5.86804" fill="#F4BEBD"/>
<circle cx="58.2826" cy="3401.95" r="5.86804" fill="#F4BEBD"/>
<ellipse cx="93.4934" cy="3401.95" rx="5.86805" ry="5.86804" fill="#F4BEBD"/>
<ellipse cx="128.703" cy="3401.95" rx="5.86803" ry="5.86804" fill="#F4BEBD"/>
<ellipse cx="163.908" cy="3401.95" rx="5.86807" ry="5.86804" fill="#F4BEBD"/>
<ellipse cx="199.114" cy="3401.95" rx="5.868" ry="5.86804" fill="#F4BEBD"/>
<ellipse cx="234.325" cy="3401.95" rx="5.86805" ry="5.86804" fill="#F4BEBD"/>
<ellipse cx="269.536" cy="3401.95" rx="5.86806" ry="5.86804" fill="#F4BEBD"/>
<ellipse cx="304.743" cy="3401.95" rx="5.86803" ry="5.86804" fill="#F4BEBD"/>
<circle cx="339.951" cy="3401.95" r="5.86804" fill="#F4BEBD"/>
</g>
<path d="M267 3085C285.779 3085 304.374 3088.7 321.724 3095.89C339.073 3103.07 354.837 3113.6 368.116 3126.88C381.395 3140.16 391.928 3155.93 399.115 3173.28C406.301 3190.63 410 3209.22 410 3228L267 3228L267 3085Z" fill="#BBCFF5"/>
<path d="M267 3371C248.221 3371 229.626 3367.3 212.276 3360.11C194.927 3352.93 179.163 3342.4 165.884 3329.12C152.605 3315.84 142.072 3300.07 134.885 3282.72C127.699 3265.37 124 3246.78 124 3228L267 3228L267 3371Z" fill="#221668"/>
<circle opacity="0.5" cx="323.246" cy="144.8" r="77.0781" fill="black"/>
<path d="M11.5839 331.928C11.5839 323.561 13.2319 315.276 16.4337 307.546C19.6355 299.816 24.3285 292.793 30.2447 286.877C36.1609 280.96 43.1845 276.267 50.9144 273.066C58.6443 269.864 66.9291 268.216 75.2959 268.216L75.2959 331.928L11.5839 331.928Z" fill="#221668"/>
<path d="M139.008 331.928C139.008 340.295 137.36 348.579 134.158 356.309C130.956 364.039 126.263 371.063 120.347 376.979C114.431 382.895 107.407 387.588 99.6774 390.79C91.9475 393.992 83.6627 395.64 75.2959 395.64L75.2959 331.928H139.008Z" fill="#BBCFF5"/>
<path d="M419.483 388.064C419.483 403.861 416.372 419.504 410.326 434.099C404.281 448.694 395.42 461.955 384.249 473.125C373.079 484.296 359.818 493.157 345.223 499.202C330.628 505.248 314.985 508.359 299.188 508.359C283.39 508.359 267.748 505.248 253.153 499.202C238.558 493.157 225.297 484.296 214.126 473.125C202.956 461.955 194.095 448.694 188.05 434.099C182.004 419.504 178.893 403.861 178.893 388.064L299.188 388.064H419.483Z" fill="#1B27C1"/>
<path d="M419.483 388.509C419.483 372.712 416.372 357.069 410.326 342.474C404.281 327.88 395.42 314.618 384.249 303.448C373.079 292.277 359.818 283.416 345.223 277.371C330.628 271.326 314.985 268.214 299.188 268.214L299.188 388.509H419.483Z" fill="#BBCFF5"/>
<path d="M352.206 388.509C352.206 395.472 350.835 402.366 348.17 408.799C345.506 415.231 341.6 421.076 336.677 425.999C331.754 430.923 325.909 434.828 319.477 437.492C313.044 440.157 306.15 441.528 299.187 441.528L299.187 388.509L352.206 388.509Z" fill="#BBCFF5"/>
<g opacity="0.3">
<circle cx="179.951" cy="1.95146" r="1.95146" fill="#F4BEBD"/>
<ellipse cx="191.661" cy="1.95146" rx="1.95146" ry="1.95146" fill="#F4BEBD"/>
<ellipse cx="203.369" cy="1.95146" rx="1.95146" ry="1.95146" fill="#F4BEBD"/>
<ellipse cx="215.078" cy="1.95146" rx="1.95146" ry="1.95146" fill="#F4BEBD"/>
<ellipse cx="226.787" cy="1.95146" rx="1.95145" ry="1.95146" fill="#F4BEBD"/>
<ellipse cx="238.495" cy="1.95146" rx="1.95146" ry="1.95146" fill="#F4BEBD"/>
<ellipse cx="250.204" cy="1.95146" rx="1.95145" ry="1.95146" fill="#F4BEBD"/>
<ellipse cx="261.912" cy="1.95146" rx="1.95145" ry="1.95146" fill="#F4BEBD"/>
<ellipse cx="273.621" cy="1.95146" rx="1.95145" ry="1.95146" fill="#F4BEBD"/>
<ellipse cx="285.33" cy="1.95146" rx="1.95145" ry="1.95146" fill="#F4BEBD"/>
<ellipse cx="297.038" cy="1.95146" rx="1.95146" ry="1.95146" fill="#F4BEBD"/>
<ellipse cx="179.951" cy="13.6604" rx="1.95146" ry="1.95146" fill="#F4BEBD"/>
<circle cx="191.661" cy="13.6604" r="1.95146" fill="#F4BEBD"/>
<ellipse cx="203.369" cy="13.6604" rx="1.95146" ry="1.95146" fill="#F4BEBD"/>
<ellipse cx="215.078" cy="13.6604" rx="1.95146" ry="1.95146" fill="#F4BEBD"/>
<ellipse cx="226.787" cy="13.6604" rx="1.95145" ry="1.95146" fill="#F4BEBD"/>
<ellipse cx="238.495" cy="13.6604" rx="1.95146" ry="1.95146" fill="#F4BEBD"/>
<ellipse cx="250.204" cy="13.6604" rx="1.95145" ry="1.95146" fill="#F4BEBD"/>
<ellipse cx="261.912" cy="13.6604" rx="1.95145" ry="1.95146" fill="#F4BEBD"/>
<ellipse cx="273.621" cy="13.6604" rx="1.95145" ry="1.95146" fill="#F4BEBD"/>
<ellipse cx="285.33" cy="13.6604" rx="1.95145" ry="1.95146" fill="#F4BEBD"/>
<ellipse cx="297.038" cy="13.6604" rx="1.95146" ry="1.95146" fill="#F4BEBD"/>
<ellipse cx="179.951" cy="25.3694" rx="1.95146" ry="1.95146" fill="#F4BEBD"/>
<ellipse cx="191.661" cy="25.3694" rx="1.95146" ry="1.95146" fill="#F4BEBD"/>
<circle cx="203.369" cy="25.3694" r="1.95146" fill="#F4BEBD"/>
<ellipse cx="215.078" cy="25.3694" rx="1.95146" ry="1.95146" fill="#F4BEBD"/>
<ellipse cx="226.787" cy="25.3694" rx="1.95145" ry="1.95146" fill="#F4BEBD"/>
<ellipse cx="238.495" cy="25.3694" rx="1.95146" ry="1.95146" fill="#F4BEBD"/>
<ellipse cx="250.204" cy="25.3694" rx="1.95145" ry="1.95146" fill="#F4BEBD"/>
<ellipse cx="261.912" cy="25.3694" rx="1.95145" ry="1.95146" fill="#F4BEBD"/>
<ellipse cx="273.621" cy="25.3694" rx="1.95145" ry="1.95146" fill="#F4BEBD"/>
<ellipse cx="285.33" cy="25.3694" rx="1.95145" ry="1.95146" fill="#F4BEBD"/>
<ellipse cx="297.038" cy="25.3694" rx="1.95146" ry="1.95146" fill="#F4BEBD"/>
<ellipse cx="179.951" cy="37.0774" rx="1.95146" ry="1.95146" fill="#F4BEBD"/>
<ellipse cx="191.661" cy="37.0774" rx="1.95146" ry="1.95146" fill="#F4BEBD"/>
<ellipse cx="203.369" cy="37.0774" rx="1.95146" ry="1.95146" fill="#F4BEBD"/>
<circle cx="215.078" cy="37.0774" r="1.95146" fill="#F4BEBD"/>
<ellipse cx="226.787" cy="37.0774" rx="1.95145" ry="1.95146" fill="#F4BEBD"/>
<ellipse cx="238.495" cy="37.0774" rx="1.95146" ry="1.95146" fill="#F4BEBD"/>
<ellipse cx="250.204" cy="37.0774" rx="1.95145" ry="1.95146" fill="#F4BEBD"/>
<ellipse cx="261.912" cy="37.0774" rx="1.95145" ry="1.95146" fill="#F4BEBD"/>
<ellipse cx="273.621" cy="37.0774" rx="1.95145" ry="1.95146" fill="#F4BEBD"/>
<ellipse cx="285.33" cy="37.0774" rx="1.95145" ry="1.95146" fill="#F4BEBD"/>
<ellipse cx="297.038" cy="37.0774" rx="1.95146" ry="1.95146" fill="#F4BEBD"/>
<ellipse cx="179.951" cy="48.7864" rx="1.95146" ry="1.95145" fill="#F4BEBD"/>
<ellipse cx="191.661" cy="48.7864" rx="1.95146" ry="1.95145" fill="#F4BEBD"/>
<ellipse cx="203.369" cy="48.7864" rx="1.95146" ry="1.95145" fill="#F4BEBD"/>
<ellipse cx="215.078" cy="48.7864" rx="1.95146" ry="1.95145" fill="#F4BEBD"/>
<circle cx="226.787" cy="48.7864" r="1.95145" fill="#F4BEBD"/>
<ellipse cx="238.495" cy="48.7864" rx="1.95146" ry="1.95145" fill="#F4BEBD"/>
<circle cx="250.204" cy="48.7864" r="1.95145" fill="#F4BEBD"/>
<circle cx="261.912" cy="48.7864" r="1.95145" fill="#F4BEBD"/>
<ellipse cx="273.621" cy="48.7864" rx="1.95145" ry="1.95145" fill="#F4BEBD"/>
<circle cx="285.33" cy="48.7864" r="1.95145" fill="#F4BEBD"/>
<ellipse cx="297.038" cy="48.7864" rx="1.95146" ry="1.95145" fill="#F4BEBD"/>
<ellipse cx="179.951" cy="60.4954" rx="1.95146" ry="1.95146" fill="#F4BEBD"/>
<ellipse cx="191.661" cy="60.4954" rx="1.95146" ry="1.95146" fill="#F4BEBD"/>
<ellipse cx="203.369" cy="60.4954" rx="1.95146" ry="1.95146" fill="#F4BEBD"/>
<ellipse cx="215.078" cy="60.4954" rx="1.95146" ry="1.95146" fill="#F4BEBD"/>
<ellipse cx="226.787" cy="60.4954" rx="1.95145" ry="1.95146" fill="#F4BEBD"/>
<circle cx="238.495" cy="60.4954" r="1.95146" fill="#F4BEBD"/>
<ellipse cx="250.204" cy="60.4954" rx="1.95145" ry="1.95146" fill="#F4BEBD"/>
<ellipse cx="261.912" cy="60.4954" rx="1.95145" ry="1.95146" fill="#F4BEBD"/>
<ellipse cx="273.621" cy="60.4954" rx="1.95145" ry="1.95146" fill="#F4BEBD"/>
<ellipse cx="285.33" cy="60.4954" rx="1.95145" ry="1.95146" fill="#F4BEBD"/>
<circle cx="297.038" cy="60.4954" r="1.95146" fill="#F4BEBD"/>
<ellipse cx="179.951" cy="72.2044" rx="1.95146" ry="1.95145" fill="#F4BEBD"/>
<ellipse cx="191.661" cy="72.2044" rx="1.95146" ry="1.95145" fill="#F4BEBD"/>
<ellipse cx="203.369" cy="72.2044" rx="1.95146" ry="1.95145" fill="#F4BEBD"/>
<ellipse cx="215.078" cy="72.2044" rx="1.95146" ry="1.95145" fill="#F4BEBD"/>
<circle cx="226.787" cy="72.2044" r="1.95145" fill="#F4BEBD"/>
<ellipse cx="238.495" cy="72.2044" rx="1.95146" ry="1.95145" fill="#F4BEBD"/>
<circle cx="250.204" cy="72.2044" r="1.95145" fill="#F4BEBD"/>
<circle cx="261.912" cy="72.2044" r="1.95145" fill="#F4BEBD"/>
<ellipse cx="273.621" cy="72.2044" rx="1.95145" ry="1.95145" fill="#F4BEBD"/>
<circle cx="285.33" cy="72.2044" r="1.95145" fill="#F4BEBD"/>
<ellipse cx="297.038" cy="72.2044" rx="1.95146" ry="1.95145" fill="#F4BEBD"/>
<ellipse cx="179.951" cy="83.9124" rx="1.95146" ry="1.95145" fill="#F4BEBD"/>
<ellipse cx="191.661" cy="83.9124" rx="1.95146" ry="1.95145" fill="#F4BEBD"/>
<ellipse cx="203.369" cy="83.9124" rx="1.95146" ry="1.95145" fill="#F4BEBD"/>
<ellipse cx="215.078" cy="83.9124" rx="1.95146" ry="1.95145" fill="#F4BEBD"/>
<circle cx="226.787" cy="83.9124" r="1.95145" fill="#F4BEBD"/>
<ellipse cx="238.495" cy="83.9124" rx="1.95146" ry="1.95145" fill="#F4BEBD"/>
<circle cx="250.204" cy="83.9124" r="1.95145" fill="#F4BEBD"/>
<circle cx="261.912" cy="83.9124" r="1.95145" fill="#F4BEBD"/>
<ellipse cx="273.621" cy="83.9124" rx="1.95145" ry="1.95145" fill="#F4BEBD"/>
<circle cx="285.33" cy="83.9124" r="1.95145" fill="#F4BEBD"/>
<ellipse cx="297.038" cy="83.9124" rx="1.95146" ry="1.95145" fill="#F4BEBD"/>
<ellipse cx="179.951" cy="95.6214" rx="1.95146" ry="1.95145" fill="#F4BEBD"/>
<ellipse cx="191.661" cy="95.6214" rx="1.95146" ry="1.95145" fill="#F4BEBD"/>
<ellipse cx="203.369" cy="95.6214" rx="1.95146" ry="1.95145" fill="#F4BEBD"/>
<ellipse cx="215.078" cy="95.6214" rx="1.95146" ry="1.95145" fill="#F4BEBD"/>
<ellipse cx="226.787" cy="95.6214" rx="1.95145" ry="1.95145" fill="#F4BEBD"/>
<ellipse cx="238.495" cy="95.6214" rx="1.95146" ry="1.95145" fill="#F4BEBD"/>
<ellipse cx="250.204" cy="95.6214" rx="1.95145" ry="1.95145" fill="#F4BEBD"/>
<ellipse cx="261.912" cy="95.6214" rx="1.95145" ry="1.95145" fill="#F4BEBD"/>
<circle cx="273.621" cy="95.6214" r="1.95145" fill="#F4BEBD"/>
<ellipse cx="285.33" cy="95.6214" rx="1.95145" ry="1.95145" fill="#F4BEBD"/>
<ellipse cx="297.038" cy="95.6214" rx="1.95146" ry="1.95145" fill="#F4BEBD"/>
<ellipse cx="179.951" cy="107.33" rx="1.95146" ry="1.95145" fill="#F4BEBD"/>
<ellipse cx="191.661" cy="107.33" rx="1.95146" ry="1.95145" fill="#F4BEBD"/>
<ellipse cx="203.369" cy="107.33" rx="1.95146" ry="1.95145" fill="#F4BEBD"/>
<ellipse cx="215.078" cy="107.33" rx="1.95146" ry="1.95145" fill="#F4BEBD"/>
<circle cx="226.787" cy="107.33" r="1.95145" fill="#F4BEBD"/>
<ellipse cx="238.495" cy="107.33" rx="1.95146" ry="1.95145" fill="#F4BEBD"/>
<circle cx="250.204" cy="107.33" r="1.95145" fill="#F4BEBD"/>
<circle cx="261.912" cy="107.33" r="1.95145" fill="#F4BEBD"/>
<ellipse cx="273.621" cy="107.33" rx="1.95145" ry="1.95145" fill="#F4BEBD"/>
<circle cx="285.33" cy="107.33" r="1.95145" fill="#F4BEBD"/>
<ellipse cx="297.038" cy="107.33" rx="1.95146" ry="1.95145" fill="#F4BEBD"/>
<ellipse cx="179.951" cy="119.039" rx="1.95146" ry="1.95146" fill="#F4BEBD"/>
<ellipse cx="191.661" cy="119.039" rx="1.95146" ry="1.95146" fill="#F4BEBD"/>
<ellipse cx="203.369" cy="119.039" rx="1.95146" ry="1.95146" fill="#F4BEBD"/>
<ellipse cx="215.078" cy="119.039" rx="1.95146" ry="1.95146" fill="#F4BEBD"/>
<ellipse cx="226.787" cy="119.039" rx="1.95145" ry="1.95146" fill="#F4BEBD"/>
<circle cx="238.495" cy="119.039" r="1.95146" fill="#F4BEBD"/>
<ellipse cx="250.204" cy="119.039" rx="1.95145" ry="1.95146" fill="#F4BEBD"/>
<ellipse cx="261.912" cy="119.039" rx="1.95145" ry="1.95146" fill="#F4BEBD"/>
<ellipse cx="273.621" cy="119.039" rx="1.95145" ry="1.95146" fill="#F4BEBD"/>
<ellipse cx="285.33" cy="119.039" rx="1.95145" ry="1.95146" fill="#F4BEBD"/>
<circle cx="297.038" cy="119.039" r="1.95146" fill="#F4BEBD"/>
</g>
<g opacity="0.3" clip-path="url(#clip0)">
<ellipse cx="3.71323" cy="301.611" rx="1.31656" ry="1.31657" fill="#F4BEBD"/>
<ellipse cx="11.6121" cy="301.611" rx="1.31657" ry="1.31657" fill="#F4BEBD"/>
<ellipse cx="19.5118" cy="301.611" rx="1.31657" ry="1.31657" fill="#F4BEBD"/>
<ellipse cx="27.4112" cy="301.611" rx="1.31656" ry="1.31657" fill="#F4BEBD"/>
<ellipse cx="35.31" cy="301.611" rx="1.31657" ry="1.31657" fill="#F4BEBD"/>
<ellipse cx="3.71323" cy="309.511" rx="1.31656" ry="1.31656" fill="#F4BEBD"/>
<ellipse cx="11.6121" cy="309.511" rx="1.31657" ry="1.31656" fill="#F4BEBD"/>
<ellipse cx="19.5118" cy="309.511" rx="1.31657" ry="1.31656" fill="#F4BEBD"/>
<ellipse cx="27.4112" cy="309.511" rx="1.31656" ry="1.31656" fill="#F4BEBD"/>
<ellipse cx="35.31" cy="309.511" rx="1.31657" ry="1.31656" fill="#F4BEBD"/>
<ellipse cx="3.71323" cy="317.41" rx="1.31656" ry="1.31657" fill="#F4BEBD"/>
<ellipse cx="11.6121" cy="317.41" rx="1.31657" ry="1.31657" fill="#F4BEBD"/>
<ellipse cx="19.5118" cy="317.41" rx="1.31657" ry="1.31657" fill="#F4BEBD"/>
<ellipse cx="27.4112" cy="317.41" rx="1.31656" ry="1.31657" fill="#F4BEBD"/>
<ellipse cx="35.31" cy="317.41" rx="1.31657" ry="1.31657" fill="#F4BEBD"/>
<ellipse cx="3.71323" cy="325.31" rx="1.31656" ry="1.31657" fill="#F4BEBD"/>
<ellipse cx="11.6121" cy="325.31" rx="1.31657" ry="1.31657" fill="#F4BEBD"/>
<ellipse cx="19.5118" cy="325.31" rx="1.31657" ry="1.31657" fill="#F4BEBD"/>
<ellipse cx="27.4112" cy="325.31" rx="1.31656" ry="1.31657" fill="#F4BEBD"/>
<ellipse cx="35.31" cy="325.31" rx="1.31657" ry="1.31657" fill="#F4BEBD"/>
<ellipse cx="3.71323" cy="333.209" rx="1.31656" ry="1.31657" fill="#F4BEBD"/>
<ellipse cx="11.6121" cy="333.209" rx="1.31657" ry="1.31657" fill="#F4BEBD"/>
<ellipse cx="19.5118" cy="333.209" rx="1.31657" ry="1.31657" fill="#F4BEBD"/>
<ellipse cx="27.4112" cy="333.209" rx="1.31656" ry="1.31657" fill="#F4BEBD"/>
<ellipse cx="35.31" cy="333.209" rx="1.31657" ry="1.31657" fill="#F4BEBD"/>
<ellipse cx="3.71323" cy="341.109" rx="1.31656" ry="1.31657" fill="#F4BEBD"/>
<ellipse cx="11.6121" cy="341.109" rx="1.31657" ry="1.31657" fill="#F4BEBD"/>
<circle cx="19.5118" cy="341.109" r="1.31657" fill="#F4BEBD"/>
<ellipse cx="27.4112" cy="341.109" rx="1.31656" ry="1.31657" fill="#F4BEBD"/>
<ellipse cx="35.31" cy="341.109" rx="1.31657" ry="1.31657" fill="#F4BEBD"/>
<ellipse cx="3.71323" cy="349.008" rx="1.31656" ry="1.31657" fill="#F4BEBD"/>
<ellipse cx="11.6121" cy="349.008" rx="1.31657" ry="1.31657" fill="#F4BEBD"/>
<circle cx="19.5118" cy="349.008" r="1.31657" fill="#F4BEBD"/>
<ellipse cx="27.4112" cy="349.008" rx="1.31656" ry="1.31657" fill="#F4BEBD"/>
<ellipse cx="35.31" cy="349.008" rx="1.31657" ry="1.31657" fill="#F4BEBD"/>
<ellipse cx="3.71323" cy="356.907" rx="1.31656" ry="1.31657" fill="#F4BEBD"/>
<circle cx="11.6121" cy="356.907" r="1.31657" fill="#F4BEBD"/>
<ellipse cx="19.5118" cy="356.907" rx="1.31657" ry="1.31657" fill="#F4BEBD"/>
<ellipse cx="27.4112" cy="356.907" rx="1.31656" ry="1.31657" fill="#F4BEBD"/>
<circle cx="35.31" cy="356.907" r="1.31657" fill="#F4BEBD"/>
<ellipse cx="3.71323" cy="364.807" rx="1.31656" ry="1.31657" fill="#F4BEBD"/>
<ellipse cx="11.6121" cy="364.807" rx="1.31657" ry="1.31657" fill="#F4BEBD"/>
<circle cx="19.5118" cy="364.807" r="1.31657" fill="#F4BEBD"/>
<ellipse cx="27.4112" cy="364.807" rx="1.31656" ry="1.31657" fill="#F4BEBD"/>
<ellipse cx="35.31" cy="364.807" rx="1.31657" ry="1.31657" fill="#F4BEBD"/>
<ellipse cx="3.71323" cy="372.706" rx="1.31656" ry="1.31657" fill="#F4BEBD"/>
<ellipse cx="11.6121" cy="372.706" rx="1.31657" ry="1.31657" fill="#F4BEBD"/>
<circle cx="19.5118" cy="372.706" r="1.31657" fill="#F4BEBD"/>
<ellipse cx="27.4112" cy="372.706" rx="1.31656" ry="1.31657" fill="#F4BEBD"/>
<ellipse cx="35.31" cy="372.706" rx="1.31657" ry="1.31657" fill="#F4BEBD"/>
<ellipse cx="3.71323" cy="380.606" rx="1.31656" ry="1.31657" fill="#F4BEBD"/>
<ellipse cx="11.6121" cy="380.606" rx="1.31657" ry="1.31657" fill="#F4BEBD"/>
<circle cx="19.5118" cy="380.606" r="1.31657" fill="#F4BEBD"/>
<ellipse cx="27.4112" cy="380.606" rx="1.31656" ry="1.31657" fill="#F4BEBD"/>
<ellipse cx="35.31" cy="380.606" rx="1.31657" ry="1.31657" fill="#F4BEBD"/>
</g>
<path d="M33.8594 629.547H86.8784L33.8594 576.528V629.547Z" fill="#0454BE"/>
<path d="M240.822 168.859L187.803 168.859L240.822 221.878L240.822 168.859Z" fill="#0454BE"/>
<path d="M295.5 2002C340.891 2002 385.262 2015.58 423.003 2041.01C460.744 2066.45 490.16 2102.61 507.53 2144.91C524.901 2187.21 529.446 2233.76 520.59 2278.66C511.735 2323.57 489.877 2364.82 457.781 2397.2C425.685 2429.57 384.792 2451.62 340.273 2460.55C295.755 2469.48 249.61 2464.9 207.674 2447.38C165.739 2429.86 129.896 2400.18 104.678 2362.11C79.4599 2324.04 66 2279.29 66 2233.5L295.5 2233.5L295.5 2002Z" fill="url(#paint0_linear)"/>
<path d="M419 1919.5C419 1950.43 412.921 1981.05 401.112 2009.62C389.302 2038.19 371.992 2064.16 350.17 2086.02C328.348 2107.89 302.442 2125.24 273.931 2137.07C245.419 2148.91 214.861 2155 184 2155L184 1919.5L419 1919.5Z" fill="url(#paint1_linear)"/>
<path d="M184 2155C154.059 2155 124.41 2149.09 96.7482 2137.61C69.0859 2126.12 43.9514 2109.29 22.7797 2088.07C1.60788 2066.86 -15.1865 2041.67 -26.6445 2013.94C-38.1026 1986.22 -44 1956.51 -44 1926.5L184 1926.5L184 2155Z" fill="#BBCFF5"/>
<g opacity="0.3">
<circle cx="99.53" cy="1168.53" r="4.53" fill="#F4BEBD"/>
<ellipse cx="126.71" cy="1168.53" rx="4.53" ry="4.53" fill="#F4BEBD"/>
<ellipse cx="153.889" cy="1168.53" rx="4.53" ry="4.53" fill="#F4BEBD"/>
<ellipse cx="181.07" cy="1168.53" rx="4.53" ry="4.53" fill="#F4BEBD"/>
<ellipse cx="208.251" cy="1168.53" rx="4.52999" ry="4.53" fill="#F4BEBD"/>
<ellipse cx="235.43" cy="1168.53" rx="4.53001" ry="4.53" fill="#F4BEBD"/>
<ellipse cx="262.609" cy="1168.53" rx="4.52998" ry="4.53" fill="#F4BEBD"/>
<ellipse cx="289.789" cy="1168.53" rx="4.53001" ry="4.53" fill="#F4BEBD"/>
<ellipse cx="316.97" cy="1168.53" rx="4.53001" ry="4.53" fill="#F4BEBD"/>
<ellipse cx="344.15" cy="1168.53" rx="4.52999" ry="4.53" fill="#F4BEBD"/>
<ellipse cx="371.33" cy="1168.53" rx="4.53" ry="4.53" fill="#F4BEBD"/>
<ellipse cx="99.53" cy="1195.71" rx="4.53" ry="4.53" fill="#F4BEBD"/>
<ellipse cx="126.71" cy="1195.71" rx="4.53" ry="4.53" fill="#F4BEBD"/>
<ellipse cx="153.889" cy="1195.71" rx="4.53" ry="4.53" fill="#F4BEBD"/>
<ellipse cx="181.07" cy="1195.71" rx="4.53" ry="4.53" fill="#F4BEBD"/>
<ellipse cx="208.251" cy="1195.71" rx="4.52999" ry="4.53" fill="#F4BEBD"/>
<ellipse cx="235.43" cy="1195.71" rx="4.53001" ry="4.53" fill="#F4BEBD"/>
<ellipse cx="262.609" cy="1195.71" rx="4.52998" ry="4.53" fill="#F4BEBD"/>
<ellipse cx="289.789" cy="1195.71" rx="4.53001" ry="4.53" fill="#F4BEBD"/>
<ellipse cx="316.97" cy="1195.71" rx="4.53001" ry="4.53" fill="#F4BEBD"/>
<ellipse cx="344.15" cy="1195.71" rx="4.52999" ry="4.53" fill="#F4BEBD"/>
<circle cx="371.33" cy="1195.71" r="4.53" fill="#F4BEBD"/>
<circle cx="99.53" cy="1222.89" r="4.53" fill="#F4BEBD"/>
<ellipse cx="126.71" cy="1222.89" rx="4.53" ry="4.53" fill="#F4BEBD"/>
<ellipse cx="153.889" cy="1222.89" rx="4.53" ry="4.53" fill="#F4BEBD"/>
<ellipse cx="181.07" cy="1222.89" rx="4.53" ry="4.53" fill="#F4BEBD"/>
<ellipse cx="208.251" cy="1222.89" rx="4.52999" ry="4.53" fill="#F4BEBD"/>
<ellipse cx="235.43" cy="1222.89" rx="4.53001" ry="4.53" fill="#F4BEBD"/>
<ellipse cx="262.609" cy="1222.89" rx="4.52998" ry="4.53" fill="#F4BEBD"/>
<ellipse cx="289.789" cy="1222.89" rx="4.53001" ry="4.53" fill="#F4BEBD"/>
<ellipse cx="316.97" cy="1222.89" rx="4.53001" ry="4.53" fill="#F4BEBD"/>
<ellipse cx="344.15" cy="1222.89" rx="4.52999" ry="4.53" fill="#F4BEBD"/>
<ellipse cx="371.33" cy="1222.89" rx="4.53" ry="4.53" fill="#F4BEBD"/>
<ellipse cx="99.53" cy="1250.07" rx="4.53" ry="4.53" fill="#F4BEBD"/>
<ellipse cx="126.71" cy="1250.07" rx="4.53" ry="4.53" fill="#F4BEBD"/>
<circle cx="153.889" cy="1250.07" r="4.53" fill="#F4BEBD"/>
<circle cx="181.07" cy="1250.07" r="4.53" fill="#F4BEBD"/>
<ellipse cx="208.251" cy="1250.07" rx="4.52999" ry="4.53" fill="#F4BEBD"/>
<ellipse cx="235.43" cy="1250.07" rx="4.53001" ry="4.53" fill="#F4BEBD"/>
<ellipse cx="262.609" cy="1250.07" rx="4.52998" ry="4.53" fill="#F4BEBD"/>
<ellipse cx="289.789" cy="1250.07" rx="4.53001" ry="4.53" fill="#F4BEBD"/>
<ellipse cx="316.97" cy="1250.07" rx="4.53001" ry="4.53" fill="#F4BEBD"/>
<ellipse cx="344.15" cy="1250.07" rx="4.52999" ry="4.53" fill="#F4BEBD"/>
<ellipse cx="371.33" cy="1250.07" rx="4.53" ry="4.53" fill="#F4BEBD"/>
<ellipse cx="99.53" cy="1277.25" rx="4.53" ry="4.53001" fill="#F4BEBD"/>
<ellipse cx="126.71" cy="1277.25" rx="4.53" ry="4.53001" fill="#F4BEBD"/>
<ellipse cx="153.889" cy="1277.25" rx="4.53" ry="4.53001" fill="#F4BEBD"/>
<ellipse cx="181.07" cy="1277.25" rx="4.53" ry="4.53001" fill="#F4BEBD"/>
<ellipse cx="208.251" cy="1277.25" rx="4.52999" ry="4.53001" fill="#F4BEBD"/>
<ellipse cx="235.43" cy="1277.25" rx="4.53001" ry="4.53001" fill="#F4BEBD"/>
<ellipse cx="262.609" cy="1277.25" rx="4.52998" ry="4.53001" fill="#F4BEBD"/>
<ellipse cx="289.789" cy="1277.25" rx="4.53001" ry="4.53001" fill="#F4BEBD"/>
<ellipse cx="316.97" cy="1277.25" rx="4.53001" ry="4.53001" fill="#F4BEBD"/>
<ellipse cx="344.15" cy="1277.25" rx="4.52999" ry="4.53001" fill="#F4BEBD"/>
<ellipse cx="371.33" cy="1277.25" rx="4.53" ry="4.53001" fill="#F4BEBD"/>
<ellipse cx="99.53" cy="1304.43" rx="4.53" ry="4.53001" fill="#F4BEBD"/>
<ellipse cx="126.71" cy="1304.43" rx="4.53" ry="4.53001" fill="#F4BEBD"/>
<ellipse cx="153.889" cy="1304.43" rx="4.53" ry="4.53001" fill="#F4BEBD"/>
<ellipse cx="181.07" cy="1304.43" rx="4.53" ry="4.53001" fill="#F4BEBD"/>
<ellipse cx="208.251" cy="1304.43" rx="4.52999" ry="4.53001" fill="#F4BEBD"/>
<ellipse cx="235.43" cy="1304.43" rx="4.53001" ry="4.53001" fill="#F4BEBD"/>
<ellipse cx="262.609" cy="1304.43" rx="4.52998" ry="4.53001" fill="#F4BEBD"/>
<circle cx="289.789" cy="1304.43" r="4.53001" fill="#F4BEBD"/>
<circle cx="316.97" cy="1304.43" r="4.53001" fill="#F4BEBD"/>
<ellipse cx="344.15" cy="1304.43" rx="4.52999" ry="4.53001" fill="#F4BEBD"/>
<ellipse cx="371.33" cy="1304.43" rx="4.53" ry="4.53001" fill="#F4BEBD"/>
<ellipse cx="99.53" cy="1331.61" rx="4.53" ry="4.52999" fill="#F4BEBD"/>
<ellipse cx="126.71" cy="1331.61" rx="4.53" ry="4.52999" fill="#F4BEBD"/>
<ellipse cx="153.889" cy="1331.61" rx="4.53" ry="4.52999" fill="#F4BEBD"/>
<ellipse cx="181.07" cy="1331.61" rx="4.53" ry="4.52999" fill="#F4BEBD"/>
<ellipse cx="208.251" cy="1331.61" rx="4.52999" ry="4.52999" fill="#F4BEBD"/>
<ellipse cx="235.43" cy="1331.61" rx="4.53001" ry="4.52999" fill="#F4BEBD"/>
<ellipse cx="262.609" cy="1331.61" rx="4.52998" ry="4.52999" fill="#F4BEBD"/>
<ellipse cx="289.789" cy="1331.61" rx="4.53001" ry="4.52999" fill="#F4BEBD"/>
<ellipse cx="316.97" cy="1331.61" rx="4.53001" ry="4.52999" fill="#F4BEBD"/>
<circle cx="344.15" cy="1331.61" r="4.52999" fill="#F4BEBD"/>
<ellipse cx="371.33" cy="1331.61" rx="4.53" ry="4.52999" fill="#F4BEBD"/>
<ellipse cx="99.53" cy="1358.79" rx="4.53" ry="4.53" fill="#F4BEBD"/>
<ellipse cx="126.71" cy="1358.79" rx="4.53" ry="4.53" fill="#F4BEBD"/>
<ellipse cx="153.889" cy="1358.79" rx="4.53" ry="4.53" fill="#F4BEBD"/>
<ellipse cx="181.07" cy="1358.79" rx="4.53" ry="4.53" fill="#F4BEBD"/>
<ellipse cx="208.251" cy="1358.79" rx="4.52999" ry="4.53" fill="#F4BEBD"/>
<ellipse cx="235.43" cy="1358.79" rx="4.53001" ry="4.53" fill="#F4BEBD"/>
<ellipse cx="262.609" cy="1358.79" rx="4.52998" ry="4.53" fill="#F4BEBD"/>
<ellipse cx="289.789" cy="1358.79" rx="4.53001" ry="4.53" fill="#F4BEBD"/>
<ellipse cx="316.97" cy="1358.79" rx="4.53001" ry="4.53" fill="#F4BEBD"/>
<ellipse cx="344.15" cy="1358.79" rx="4.52999" ry="4.53" fill="#F4BEBD"/>
<circle cx="371.33" cy="1358.79" r="4.53" fill="#F4BEBD"/>
<ellipse cx="99.53" cy="1385.97" rx="4.53" ry="4.53001" fill="#F4BEBD"/>
<ellipse cx="126.71" cy="1385.97" rx="4.53" ry="4.53001" fill="#F4BEBD"/>
<ellipse cx="153.889" cy="1385.97" rx="4.53" ry="4.53001" fill="#F4BEBD"/>
<ellipse cx="181.07" cy="1385.97" rx="4.53" ry="4.53001" fill="#F4BEBD"/>
<ellipse cx="208.251" cy="1385.97" rx="4.52999" ry="4.53001" fill="#F4BEBD"/>
<ellipse cx="235.43" cy="1385.97" rx="4.53001" ry="4.53001" fill="#F4BEBD"/>
<ellipse cx="262.609" cy="1385.97" rx="4.52998" ry="4.53001" fill="#F4BEBD"/>
<circle cx="289.789" cy="1385.97" r="4.53001" fill="#F4BEBD"/>
<circle cx="316.97" cy="1385.97" r="4.53001" fill="#F4BEBD"/>
<ellipse cx="344.15" cy="1385.97" rx="4.52999" ry="4.53001" fill="#F4BEBD"/>
<ellipse cx="371.33" cy="1385.97" rx="4.53" ry="4.53001" fill="#F4BEBD"/>
<ellipse cx="99.53" cy="1413.15" rx="4.53" ry="4.53001" fill="#F4BEBD"/>
<ellipse cx="126.71" cy="1413.15" rx="4.53" ry="4.53001" fill="#F4BEBD"/>
<ellipse cx="153.889" cy="1413.15" rx="4.53" ry="4.53001" fill="#F4BEBD"/>
<ellipse cx="181.07" cy="1413.15" rx="4.53" ry="4.53001" fill="#F4BEBD"/>
<ellipse cx="208.251" cy="1413.15" rx="4.52999" ry="4.53001" fill="#F4BEBD"/>
<circle cx="235.43" cy="1413.15" r="4.53001" fill="#F4BEBD"/>
<ellipse cx="262.609" cy="1413.15" rx="4.52998" ry="4.53001" fill="#F4BEBD"/>
<ellipse cx="289.789" cy="1413.15" rx="4.53001" ry="4.53001" fill="#F4BEBD"/>
<ellipse cx="316.97" cy="1413.15" rx="4.53001" ry="4.53001" fill="#F4BEBD"/>
<ellipse cx="344.15" cy="1413.15" rx="4.52999" ry="4.53001" fill="#F4BEBD"/>
<ellipse cx="371.33" cy="1413.15" rx="4.53" ry="4.53001" fill="#F4BEBD"/>
<ellipse cx="99.53" cy="1440.33" rx="4.53" ry="4.53" fill="#F4BEBD"/>
<ellipse cx="126.71" cy="1440.33" rx="4.53" ry="4.53" fill="#F4BEBD"/>
<ellipse cx="153.889" cy="1440.33" rx="4.53" ry="4.53" fill="#F4BEBD"/>
<ellipse cx="181.07" cy="1440.33" rx="4.53" ry="4.53" fill="#F4BEBD"/>
<ellipse cx="208.251" cy="1440.33" rx="4.52999" ry="4.53" fill="#F4BEBD"/>
<ellipse cx="235.43" cy="1440.33" rx="4.53001" ry="4.53" fill="#F4BEBD"/>
<ellipse cx="262.609" cy="1440.33" rx="4.52998" ry="4.53" fill="#F4BEBD"/>
<ellipse cx="289.789" cy="1440.33" rx="4.53001" ry="4.53" fill="#F4BEBD"/>
<ellipse cx="316.97" cy="1440.33" rx="4.53001" ry="4.53" fill="#F4BEBD"/>
<ellipse cx="344.15" cy="1440.33" rx="4.52999" ry="4.53" fill="#F4BEBD"/>
<circle cx="371.33" cy="1440.33" r="4.53" fill="#F4BEBD"/>
</g>
<path d="M1 1230.37H72.3688L1 1159V1230.37Z" fill="#0454BE"/>
<path d="M-0.500002 1250C14.2737 1250 28.9028 1252.94 42.5519 1258.64C56.201 1264.34 68.6029 1272.7 79.0495 1283.24C89.4961 1293.78 97.7828 1306.29 103.436 1320.07C109.09 1333.84 112 1348.59 112 1363.5L-0.499997 1363.5L-0.500002 1250Z" fill="#3A42B6"/>
<defs>
<linearGradient id="paint0_linear" x1="66" y1="2233.5" x2="519.082" y2="2159.39" gradientUnits="userSpaceOnUse">
<stop stop-color="#3F58AF"/>
<stop offset="1" stop-color="#151A67"/>
</linearGradient>
<linearGradient id="paint1_linear" x1="184" y1="1684" x2="260.829" y2="2148.66" gradientUnits="userSpaceOnUse">
<stop stop-color="#3F58AF"/>
<stop offset="1" stop-color="#151A67"/>
</linearGradient>
<clipPath id="clip0">
<rect width="87.771" height="87.771" fill="white" transform="translate(-45 300.295)"/>
</clipPath>
</defs>
</svg>
