<svg width="768" height="4138" viewBox="0 0 768 4138" fill="none" xmlns="http://www.w3.org/2000/svg">
<path d="M164.5 3773C188.466 3773 212.198 3777.72 234.34 3786.89C256.482 3796.06 276.6 3809.51 293.547 3826.45C310.494 3843.4 323.937 3863.52 333.108 3885.66C342.28 3907.8 347 3931.53 347 3955.5L164.5 3955.5L164.5 3773Z" fill="#221668"/>
<path d="M34 3416L34 3545L162 3416L34 3416Z" fill="#0454BE"/>
<path d="M34 3766L34 3895L162 3766L34 3766Z" fill="#0454BE"/>
<g opacity="0.3">
<circle cx="298.531" cy="3743.53" r="2.531" fill="#F4BEBD"/>
<ellipse cx="313.718" cy="3743.53" rx="2.531" ry="2.531" fill="#F4BEBD"/>
<ellipse cx="328.902" cy="3743.53" rx="2.531" ry="2.531" fill="#F4BEBD"/>
<ellipse cx="344.089" cy="3743.53" rx="2.531" ry="2.531" fill="#F4BEBD"/>
<ellipse cx="359.275" cy="3743.53" rx="2.53099" ry="2.531" fill="#F4BEBD"/>
<ellipse cx="374.46" cy="3743.53" rx="2.531" ry="2.531" fill="#F4BEBD"/>
<ellipse cx="389.646" cy="3743.53" rx="2.53098" ry="2.531" fill="#F4BEBD"/>
<ellipse cx="404.833" cy="3743.53" rx="2.53099" ry="2.531" fill="#F4BEBD"/>
<ellipse cx="420.019" cy="3743.53" rx="2.531" ry="2.531" fill="#F4BEBD"/>
<ellipse cx="435.204" cy="3743.53" rx="2.531" ry="2.531" fill="#F4BEBD"/>
<ellipse cx="450.391" cy="3743.53" rx="2.53099" ry="2.531" fill="#F4BEBD"/>
<ellipse cx="298.531" cy="3758.72" rx="2.531" ry="2.531" fill="#F4BEBD"/>
<ellipse cx="313.718" cy="3758.72" rx="2.531" ry="2.531" fill="#F4BEBD"/>
<ellipse cx="328.902" cy="3758.72" rx="2.531" ry="2.531" fill="#F4BEBD"/>
<ellipse cx="344.089" cy="3758.72" rx="2.531" ry="2.531" fill="#F4BEBD"/>
<ellipse cx="359.275" cy="3758.72" rx="2.53099" ry="2.531" fill="#F4BEBD"/>
<ellipse cx="374.46" cy="3758.72" rx="2.531" ry="2.531" fill="#F4BEBD"/>
<ellipse cx="389.646" cy="3758.72" rx="2.53098" ry="2.531" fill="#F4BEBD"/>
<ellipse cx="404.833" cy="3758.72" rx="2.53099" ry="2.531" fill="#F4BEBD"/>
<ellipse cx="420.019" cy="3758.72" rx="2.531" ry="2.531" fill="#F4BEBD"/>
<ellipse cx="435.204" cy="3758.72" rx="2.531" ry="2.531" fill="#F4BEBD"/>
<ellipse cx="450.391" cy="3758.72" rx="2.53099" ry="2.531" fill="#F4BEBD"/>
<ellipse cx="298.531" cy="3773.9" rx="2.531" ry="2.53099" fill="#F4BEBD"/>
<ellipse cx="313.718" cy="3773.9" rx="2.531" ry="2.53099" fill="#F4BEBD"/>
<ellipse cx="328.902" cy="3773.9" rx="2.531" ry="2.53099" fill="#F4BEBD"/>
<ellipse cx="344.089" cy="3773.9" rx="2.531" ry="2.53099" fill="#F4BEBD"/>
<ellipse cx="359.275" cy="3773.9" rx="2.53099" ry="2.53099" fill="#F4BEBD"/>
<ellipse cx="374.46" cy="3773.9" rx="2.531" ry="2.53099" fill="#F4BEBD"/>
<ellipse cx="389.646" cy="3773.9" rx="2.53098" ry="2.53099" fill="#F4BEBD"/>
<circle cx="404.833" cy="3773.9" r="2.53099" fill="#F4BEBD"/>
<ellipse cx="420.019" cy="3773.9" rx="2.531" ry="2.53099" fill="#F4BEBD"/>
<ellipse cx="435.204" cy="3773.9" rx="2.531" ry="2.53099" fill="#F4BEBD"/>
<ellipse cx="450.391" cy="3773.9" rx="2.53099" ry="2.53099" fill="#F4BEBD"/>
<ellipse cx="298.531" cy="3789.09" rx="2.531" ry="2.53099" fill="#F4BEBD"/>
<ellipse cx="313.718" cy="3789.09" rx="2.531" ry="2.53099" fill="#F4BEBD"/>
<ellipse cx="328.902" cy="3789.09" rx="2.531" ry="2.53099" fill="#F4BEBD"/>
<ellipse cx="344.089" cy="3789.09" rx="2.531" ry="2.53099" fill="#F4BEBD"/>
<ellipse cx="359.275" cy="3789.09" rx="2.53099" ry="2.53099" fill="#F4BEBD"/>
<ellipse cx="374.46" cy="3789.09" rx="2.531" ry="2.53099" fill="#F4BEBD"/>
<ellipse cx="389.646" cy="3789.09" rx="2.53098" ry="2.53099" fill="#F4BEBD"/>
<circle cx="404.833" cy="3789.09" r="2.53099" fill="#F4BEBD"/>
<ellipse cx="420.019" cy="3789.09" rx="2.531" ry="2.53099" fill="#F4BEBD"/>
<ellipse cx="435.204" cy="3789.09" rx="2.531" ry="2.53099" fill="#F4BEBD"/>
<ellipse cx="450.391" cy="3789.09" rx="2.53099" ry="2.53099" fill="#F4BEBD"/>
<ellipse cx="298.531" cy="3804.28" rx="2.531" ry="2.531" fill="#F4BEBD"/>
<ellipse cx="313.718" cy="3804.28" rx="2.531" ry="2.531" fill="#F4BEBD"/>
<ellipse cx="328.902" cy="3804.28" rx="2.531" ry="2.531" fill="#F4BEBD"/>
<ellipse cx="344.089" cy="3804.28" rx="2.531" ry="2.531" fill="#F4BEBD"/>
<ellipse cx="359.275" cy="3804.28" rx="2.53099" ry="2.531" fill="#F4BEBD"/>
<ellipse cx="374.46" cy="3804.28" rx="2.531" ry="2.531" fill="#F4BEBD"/>
<ellipse cx="389.646" cy="3804.28" rx="2.53098" ry="2.531" fill="#F4BEBD"/>
<ellipse cx="404.833" cy="3804.28" rx="2.53099" ry="2.531" fill="#F4BEBD"/>
<ellipse cx="420.019" cy="3804.28" rx="2.531" ry="2.531" fill="#F4BEBD"/>
<ellipse cx="435.204" cy="3804.28" rx="2.531" ry="2.531" fill="#F4BEBD"/>
<ellipse cx="450.391" cy="3804.28" rx="2.53099" ry="2.531" fill="#F4BEBD"/>
<ellipse cx="298.531" cy="3819.46" rx="2.531" ry="2.531" fill="#F4BEBD"/>
<ellipse cx="313.718" cy="3819.46" rx="2.531" ry="2.531" fill="#F4BEBD"/>
<circle cx="328.902" cy="3819.46" r="2.531" fill="#F4BEBD"/>
<circle cx="344.089" cy="3819.46" r="2.531" fill="#F4BEBD"/>
<ellipse cx="359.275" cy="3819.46" rx="2.53099" ry="2.531" fill="#F4BEBD"/>
<circle cx="374.46" cy="3819.46" r="2.531" fill="#F4BEBD"/>
<ellipse cx="389.646" cy="3819.46" rx="2.53098" ry="2.531" fill="#F4BEBD"/>
<ellipse cx="404.833" cy="3819.46" rx="2.53099" ry="2.531" fill="#F4BEBD"/>
<circle cx="420.019" cy="3819.46" r="2.531" fill="#F4BEBD"/>
<circle cx="435.204" cy="3819.46" r="2.531" fill="#F4BEBD"/>
<ellipse cx="450.391" cy="3819.46" rx="2.53099" ry="2.531" fill="#F4BEBD"/>
<ellipse cx="298.531" cy="3834.65" rx="2.531" ry="2.53098" fill="#F4BEBD"/>
<ellipse cx="313.718" cy="3834.65" rx="2.531" ry="2.53098" fill="#F4BEBD"/>
<ellipse cx="328.902" cy="3834.65" rx="2.531" ry="2.53098" fill="#F4BEBD"/>
<ellipse cx="344.089" cy="3834.65" rx="2.531" ry="2.53098" fill="#F4BEBD"/>
<ellipse cx="359.275" cy="3834.65" rx="2.53099" ry="2.53098" fill="#F4BEBD"/>
<ellipse cx="374.46" cy="3834.65" rx="2.531" ry="2.53098" fill="#F4BEBD"/>
<circle cx="389.646" cy="3834.65" r="2.53098" fill="#F4BEBD"/>
<ellipse cx="404.833" cy="3834.65" rx="2.53099" ry="2.53098" fill="#F4BEBD"/>
<ellipse cx="420.019" cy="3834.65" rx="2.531" ry="2.53098" fill="#F4BEBD"/>
<ellipse cx="435.204" cy="3834.65" rx="2.531" ry="2.53098" fill="#F4BEBD"/>
<ellipse cx="450.391" cy="3834.65" rx="2.53099" ry="2.53098" fill="#F4BEBD"/>
<ellipse cx="298.531" cy="3849.83" rx="2.531" ry="2.531" fill="#F4BEBD"/>
<ellipse cx="313.718" cy="3849.83" rx="2.531" ry="2.531" fill="#F4BEBD"/>
<ellipse cx="328.902" cy="3849.83" rx="2.531" ry="2.531" fill="#F4BEBD"/>
<ellipse cx="344.089" cy="3849.83" rx="2.531" ry="2.531" fill="#F4BEBD"/>
<ellipse cx="359.275" cy="3849.83" rx="2.53099" ry="2.531" fill="#F4BEBD"/>
<ellipse cx="374.46" cy="3849.83" rx="2.531" ry="2.531" fill="#F4BEBD"/>
<ellipse cx="389.646" cy="3849.83" rx="2.53098" ry="2.531" fill="#F4BEBD"/>
<ellipse cx="404.833" cy="3849.83" rx="2.53099" ry="2.531" fill="#F4BEBD"/>
<ellipse cx="420.019" cy="3849.83" rx="2.531" ry="2.531" fill="#F4BEBD"/>
<ellipse cx="435.204" cy="3849.83" rx="2.531" ry="2.531" fill="#F4BEBD"/>
<ellipse cx="450.391" cy="3849.83" rx="2.53099" ry="2.531" fill="#F4BEBD"/>
<ellipse cx="298.531" cy="3865.02" rx="2.531" ry="2.53099" fill="#F4BEBD"/>
<ellipse cx="313.718" cy="3865.02" rx="2.531" ry="2.53099" fill="#F4BEBD"/>
<ellipse cx="328.902" cy="3865.02" rx="2.531" ry="2.53099" fill="#F4BEBD"/>
<ellipse cx="344.089" cy="3865.02" rx="2.531" ry="2.53099" fill="#F4BEBD"/>
<circle cx="359.275" cy="3865.02" r="2.53099" fill="#F4BEBD"/>
<ellipse cx="374.46" cy="3865.02" rx="2.531" ry="2.53099" fill="#F4BEBD"/>
<ellipse cx="389.646" cy="3865.02" rx="2.53098" ry="2.53099" fill="#F4BEBD"/>
<ellipse cx="404.833" cy="3865.02" rx="2.53099" ry="2.53099" fill="#F4BEBD"/>
<ellipse cx="420.019" cy="3865.02" rx="2.531" ry="2.53099" fill="#F4BEBD"/>
<ellipse cx="435.204" cy="3865.02" rx="2.531" ry="2.53099" fill="#F4BEBD"/>
<circle cx="450.391" cy="3865.02" r="2.53099" fill="#F4BEBD"/>
<ellipse cx="298.531" cy="3880.2" rx="2.531" ry="2.53099" fill="#F4BEBD"/>
<ellipse cx="313.718" cy="3880.2" rx="2.531" ry="2.53099" fill="#F4BEBD"/>
<ellipse cx="328.902" cy="3880.2" rx="2.531" ry="2.53099" fill="#F4BEBD"/>
<ellipse cx="344.089" cy="3880.2" rx="2.531" ry="2.53099" fill="#F4BEBD"/>
<circle cx="359.275" cy="3880.2" r="2.53099" fill="#F4BEBD"/>
<ellipse cx="374.46" cy="3880.2" rx="2.531" ry="2.53099" fill="#F4BEBD"/>
<ellipse cx="389.646" cy="3880.2" rx="2.53098" ry="2.53099" fill="#F4BEBD"/>
<ellipse cx="404.833" cy="3880.2" rx="2.53099" ry="2.53099" fill="#F4BEBD"/>
<ellipse cx="420.019" cy="3880.2" rx="2.531" ry="2.53099" fill="#F4BEBD"/>
<ellipse cx="435.204" cy="3880.2" rx="2.531" ry="2.53099" fill="#F4BEBD"/>
<circle cx="450.391" cy="3880.2" r="2.53099" fill="#F4BEBD"/>
<ellipse cx="298.531" cy="3895.39" rx="2.531" ry="2.53099" fill="#F4BEBD"/>
<ellipse cx="313.718" cy="3895.39" rx="2.531" ry="2.53099" fill="#F4BEBD"/>
<ellipse cx="328.902" cy="3895.39" rx="2.531" ry="2.53099" fill="#F4BEBD"/>
<ellipse cx="344.089" cy="3895.39" rx="2.531" ry="2.53099" fill="#F4BEBD"/>
<circle cx="359.275" cy="3895.39" r="2.53099" fill="#F4BEBD"/>
<ellipse cx="374.46" cy="3895.39" rx="2.531" ry="2.53099" fill="#F4BEBD"/>
<ellipse cx="389.646" cy="3895.39" rx="2.53098" ry="2.53099" fill="#F4BEBD"/>
<ellipse cx="404.833" cy="3895.39" rx="2.53099" ry="2.53099" fill="#F4BEBD"/>
<ellipse cx="420.019" cy="3895.39" rx="2.531" ry="2.53099" fill="#F4BEBD"/>
<ellipse cx="435.204" cy="3895.39" rx="2.531" ry="2.53099" fill="#F4BEBD"/>
<circle cx="450.391" cy="3895.39" r="2.53099" fill="#F4BEBD"/>
</g>
<ellipse opacity="0.2" cx="493.5" cy="3755.5" rx="46.5" ry="45.5" transform="rotate(-90 493.5 3755.5)" fill="#F8F9FF"/>
<path d="M693 3511C730.427 3511 767.487 3518.37 802.065 3532.69C836.643 3547.02 868.061 3568.01 894.525 3594.47C920.99 3620.94 941.983 3652.36 956.306 3686.94C970.628 3721.51 978 3758.57 978 3796C978 3833.43 970.628 3870.49 956.306 3905.06C941.983 3939.64 920.99 3971.06 894.525 3997.53C868.061 4023.99 836.643 4044.98 802.065 4059.31C767.487 4073.63 730.427 4081 693 4081L693 3796L693 3511Z" fill="#1B27C1"/>
<g opacity="0.3">
<ellipse cx="21.4934" cy="2829.87" rx="5.86805" ry="5.86804" fill="#F4BEBD"/>
<ellipse cx="56.703" cy="2829.87" rx="5.86803" ry="5.86804" fill="#F4BEBD"/>
<ellipse cx="91.9076" cy="2829.87" rx="5.86807" ry="5.86804" fill="#F4BEBD"/>
<ellipse cx="127.114" cy="2829.87" rx="5.868" ry="5.86804" fill="#F4BEBD"/>
<ellipse cx="162.325" cy="2829.87" rx="5.86805" ry="5.86804" fill="#F4BEBD"/>
<ellipse cx="197.536" cy="2829.87" rx="5.86806" ry="5.86804" fill="#F4BEBD"/>
<ellipse cx="232.743" cy="2829.87" rx="5.86803" ry="5.86804" fill="#F4BEBD"/>
<ellipse cx="267.951" cy="2829.87" rx="5.86804" ry="5.86804" fill="#F4BEBD"/>
<ellipse cx="21.4934" cy="2865.08" rx="5.86805" ry="5.86805" fill="#F4BEBD"/>
<ellipse cx="56.703" cy="2865.08" rx="5.86803" ry="5.86805" fill="#F4BEBD"/>
<ellipse cx="91.9076" cy="2865.08" rx="5.86807" ry="5.86805" fill="#F4BEBD"/>
<ellipse cx="127.114" cy="2865.08" rx="5.868" ry="5.86805" fill="#F4BEBD"/>
<ellipse cx="162.325" cy="2865.08" rx="5.86805" ry="5.86805" fill="#F4BEBD"/>
<ellipse cx="197.536" cy="2865.08" rx="5.86806" ry="5.86805" fill="#F4BEBD"/>
<ellipse cx="232.743" cy="2865.08" rx="5.86803" ry="5.86805" fill="#F4BEBD"/>
<ellipse cx="267.951" cy="2865.08" rx="5.86804" ry="5.86805" fill="#F4BEBD"/>
<ellipse cx="21.4934" cy="2900.28" rx="5.86805" ry="5.86804" fill="#F4BEBD"/>
<ellipse cx="56.703" cy="2900.28" rx="5.86803" ry="5.86804" fill="#F4BEBD"/>
<ellipse cx="91.9076" cy="2900.28" rx="5.86807" ry="5.86804" fill="#F4BEBD"/>
<ellipse cx="127.114" cy="2900.28" rx="5.868" ry="5.86804" fill="#F4BEBD"/>
<ellipse cx="162.325" cy="2900.28" rx="5.86805" ry="5.86804" fill="#F4BEBD"/>
<ellipse cx="197.536" cy="2900.28" rx="5.86806" ry="5.86804" fill="#F4BEBD"/>
<ellipse cx="232.743" cy="2900.28" rx="5.86803" ry="5.86804" fill="#F4BEBD"/>
<ellipse cx="267.951" cy="2900.28" rx="5.86804" ry="5.86804" fill="#F4BEBD"/>
<ellipse cx="21.4934" cy="2935.49" rx="5.86805" ry="5.86804" fill="#F4BEBD"/>
<ellipse cx="56.703" cy="2935.49" rx="5.86803" ry="5.86804" fill="#F4BEBD"/>
<ellipse cx="91.9076" cy="2935.49" rx="5.86807" ry="5.86804" fill="#F4BEBD"/>
<ellipse cx="127.114" cy="2935.49" rx="5.868" ry="5.86804" fill="#F4BEBD"/>
<ellipse cx="162.325" cy="2935.49" rx="5.86805" ry="5.86804" fill="#F4BEBD"/>
<ellipse cx="197.536" cy="2935.49" rx="5.86806" ry="5.86804" fill="#F4BEBD"/>
<ellipse cx="232.743" cy="2935.49" rx="5.86803" ry="5.86804" fill="#F4BEBD"/>
<ellipse cx="267.951" cy="2935.49" rx="5.86804" ry="5.86804" fill="#F4BEBD"/>
<ellipse cx="21.4934" cy="2970.7" rx="5.86805" ry="5.86806" fill="#F4BEBD"/>
<ellipse cx="56.703" cy="2970.7" rx="5.86803" ry="5.86806" fill="#F4BEBD"/>
<ellipse cx="91.9076" cy="2970.7" rx="5.86807" ry="5.86806" fill="#F4BEBD"/>
<ellipse cx="127.114" cy="2970.7" rx="5.868" ry="5.86806" fill="#F4BEBD"/>
<ellipse cx="162.325" cy="2970.7" rx="5.86805" ry="5.86806" fill="#F4BEBD"/>
<ellipse cx="197.536" cy="2970.7" rx="5.86806" ry="5.86806" fill="#F4BEBD"/>
<ellipse cx="232.743" cy="2970.7" rx="5.86803" ry="5.86806" fill="#F4BEBD"/>
<ellipse cx="267.951" cy="2970.7" rx="5.86804" ry="5.86806" fill="#F4BEBD"/>
<circle cx="21.4934" cy="3005.91" r="5.86805" fill="#F4BEBD"/>
<ellipse cx="56.703" cy="3005.91" rx="5.86803" ry="5.86805" fill="#F4BEBD"/>
<ellipse cx="91.9076" cy="3005.91" rx="5.86807" ry="5.86805" fill="#F4BEBD"/>
<ellipse cx="127.114" cy="3005.91" rx="5.868" ry="5.86805" fill="#F4BEBD"/>
<circle cx="162.325" cy="3005.91" r="5.86805" fill="#F4BEBD"/>
<ellipse cx="197.536" cy="3005.91" rx="5.86806" ry="5.86805" fill="#F4BEBD"/>
<ellipse cx="232.743" cy="3005.91" rx="5.86803" ry="5.86805" fill="#F4BEBD"/>
<ellipse cx="267.951" cy="3005.91" rx="5.86804" ry="5.86805" fill="#F4BEBD"/>
<ellipse cx="21.4934" cy="3041.12" rx="5.86805" ry="5.86802" fill="#F4BEBD"/>
<ellipse cx="56.703" cy="3041.12" rx="5.86803" ry="5.86802" fill="#F4BEBD"/>
<ellipse cx="91.9076" cy="3041.12" rx="5.86807" ry="5.86802" fill="#F4BEBD"/>
<ellipse cx="127.114" cy="3041.12" rx="5.868" ry="5.86802" fill="#F4BEBD"/>
<ellipse cx="162.325" cy="3041.12" rx="5.86805" ry="5.86802" fill="#F4BEBD"/>
<ellipse cx="197.536" cy="3041.12" rx="5.86806" ry="5.86802" fill="#F4BEBD"/>
<ellipse cx="232.743" cy="3041.12" rx="5.86803" ry="5.86802" fill="#F4BEBD"/>
<ellipse cx="267.951" cy="3041.12" rx="5.86804" ry="5.86802" fill="#F4BEBD"/>
<ellipse cx="21.4934" cy="3076.33" rx="5.86805" ry="5.86804" fill="#F4BEBD"/>
<ellipse cx="56.703" cy="3076.33" rx="5.86803" ry="5.86804" fill="#F4BEBD"/>
<ellipse cx="91.9076" cy="3076.33" rx="5.86807" ry="5.86804" fill="#F4BEBD"/>
<ellipse cx="127.114" cy="3076.33" rx="5.868" ry="5.86804" fill="#F4BEBD"/>
<ellipse cx="162.325" cy="3076.33" rx="5.86805" ry="5.86804" fill="#F4BEBD"/>
<ellipse cx="197.536" cy="3076.33" rx="5.86806" ry="5.86804" fill="#F4BEBD"/>
<ellipse cx="232.743" cy="3076.33" rx="5.86803" ry="5.86804" fill="#F4BEBD"/>
<circle cx="267.951" cy="3076.33" r="5.86804" fill="#F4BEBD"/>
<ellipse cx="21.4934" cy="3111.53" rx="5.86805" ry="5.86804" fill="#F4BEBD"/>
<ellipse cx="56.703" cy="3111.53" rx="5.86803" ry="5.86804" fill="#F4BEBD"/>
<ellipse cx="91.9076" cy="3111.53" rx="5.86807" ry="5.86804" fill="#F4BEBD"/>
<ellipse cx="127.114" cy="3111.53" rx="5.868" ry="5.86804" fill="#F4BEBD"/>
<ellipse cx="162.325" cy="3111.53" rx="5.86805" ry="5.86804" fill="#F4BEBD"/>
<ellipse cx="197.536" cy="3111.53" rx="5.86806" ry="5.86804" fill="#F4BEBD"/>
<ellipse cx="232.743" cy="3111.53" rx="5.86803" ry="5.86804" fill="#F4BEBD"/>
<circle cx="267.951" cy="3111.53" r="5.86804" fill="#F4BEBD"/>
<ellipse cx="21.4934" cy="3146.74" rx="5.86805" ry="5.86806" fill="#F4BEBD"/>
<ellipse cx="56.703" cy="3146.74" rx="5.86803" ry="5.86806" fill="#F4BEBD"/>
<ellipse cx="91.9076" cy="3146.74" rx="5.86807" ry="5.86806" fill="#F4BEBD"/>
<ellipse cx="127.114" cy="3146.74" rx="5.868" ry="5.86806" fill="#F4BEBD"/>
<ellipse cx="162.325" cy="3146.74" rx="5.86805" ry="5.86806" fill="#F4BEBD"/>
<circle cx="197.536" cy="3146.74" r="5.86806" fill="#F4BEBD"/>
<ellipse cx="232.743" cy="3146.74" rx="5.86803" ry="5.86806" fill="#F4BEBD"/>
<ellipse cx="267.951" cy="3146.74" rx="5.86804" ry="5.86806" fill="#F4BEBD"/>
<ellipse cx="21.4934" cy="3181.95" rx="5.86805" ry="5.86804" fill="#F4BEBD"/>
<ellipse cx="56.703" cy="3181.95" rx="5.86803" ry="5.86804" fill="#F4BEBD"/>
<ellipse cx="91.9076" cy="3181.95" rx="5.86807" ry="5.86804" fill="#F4BEBD"/>
<ellipse cx="127.114" cy="3181.95" rx="5.868" ry="5.86804" fill="#F4BEBD"/>
<ellipse cx="162.325" cy="3181.95" rx="5.86805" ry="5.86804" fill="#F4BEBD"/>
<ellipse cx="197.536" cy="3181.95" rx="5.86806" ry="5.86804" fill="#F4BEBD"/>
<ellipse cx="232.743" cy="3181.95" rx="5.86803" ry="5.86804" fill="#F4BEBD"/>
<circle cx="267.951" cy="3181.95" r="5.86804" fill="#F4BEBD"/>
</g>
<path d="M195 2865C213.779 2865 232.374 2868.7 249.724 2875.89C267.073 2883.07 282.837 2893.6 296.116 2906.88C309.395 2920.16 319.928 2935.93 327.115 2953.28C334.301 2970.63 338 2989.22 338 3008L195 3008L195 2865Z" fill="#BBCFF5"/>
<path d="M195 3151C176.221 3151 157.626 3147.3 140.276 3140.11C122.927 3132.93 107.163 3122.4 93.8837 3109.12C80.605 3095.84 70.0717 3080.07 62.8852 3062.72C55.6988 3045.37 52 3026.78 52 3008L195 3008L195 3151Z" fill="#221668"/>
<g opacity="0.3">
<circle cx="624.531" cy="3264.53" r="3.5305" fill="#F4BEBD"/>
<ellipse cx="645.716" cy="3264.53" rx="3.5305" ry="3.5305" fill="#F4BEBD"/>
<ellipse cx="666.895" cy="3264.53" rx="3.5305" ry="3.5305" fill="#F4BEBD"/>
<ellipse cx="688.08" cy="3264.53" rx="3.5305" ry="3.5305" fill="#F4BEBD"/>
<ellipse cx="709.263" cy="3264.53" rx="3.53049" ry="3.5305" fill="#F4BEBD"/>
<ellipse cx="730.445" cy="3264.53" rx="3.5305" ry="3.5305" fill="#F4BEBD"/>
<ellipse cx="751.627" cy="3264.53" rx="3.53047" ry="3.5305" fill="#F4BEBD"/>
<ellipse cx="624.531" cy="3285.71" rx="3.5305" ry="3.5305" fill="#F4BEBD"/>
<ellipse cx="645.716" cy="3285.71" rx="3.5305" ry="3.5305" fill="#F4BEBD"/>
<ellipse cx="666.895" cy="3285.71" rx="3.5305" ry="3.5305" fill="#F4BEBD"/>
<ellipse cx="688.08" cy="3285.71" rx="3.5305" ry="3.5305" fill="#F4BEBD"/>
<ellipse cx="709.263" cy="3285.71" rx="3.53049" ry="3.5305" fill="#F4BEBD"/>
<ellipse cx="730.445" cy="3285.71" rx="3.5305" ry="3.5305" fill="#F4BEBD"/>
<ellipse cx="751.627" cy="3285.71" rx="3.53047" ry="3.5305" fill="#F4BEBD"/>
<ellipse cx="624.531" cy="3306.9" rx="3.5305" ry="3.5305" fill="#F4BEBD"/>
<ellipse cx="645.716" cy="3306.9" rx="3.5305" ry="3.5305" fill="#F4BEBD"/>
<ellipse cx="666.895" cy="3306.9" rx="3.5305" ry="3.5305" fill="#F4BEBD"/>
<ellipse cx="688.08" cy="3306.9" rx="3.5305" ry="3.5305" fill="#F4BEBD"/>
<ellipse cx="709.263" cy="3306.9" rx="3.53049" ry="3.5305" fill="#F4BEBD"/>
<ellipse cx="730.445" cy="3306.9" rx="3.5305" ry="3.5305" fill="#F4BEBD"/>
<ellipse cx="751.627" cy="3306.9" rx="3.53047" ry="3.5305" fill="#F4BEBD"/>
<ellipse cx="624.531" cy="3328.08" rx="3.5305" ry="3.53049" fill="#F4BEBD"/>
<ellipse cx="645.716" cy="3328.08" rx="3.5305" ry="3.53049" fill="#F4BEBD"/>
<ellipse cx="666.895" cy="3328.08" rx="3.5305" ry="3.53049" fill="#F4BEBD"/>
<ellipse cx="688.08" cy="3328.08" rx="3.5305" ry="3.53049" fill="#F4BEBD"/>
<ellipse cx="709.263" cy="3328.08" rx="3.53049" ry="3.53049" fill="#F4BEBD"/>
<ellipse cx="730.445" cy="3328.08" rx="3.5305" ry="3.53049" fill="#F4BEBD"/>
<ellipse cx="751.627" cy="3328.08" rx="3.53047" ry="3.53049" fill="#F4BEBD"/>
<ellipse cx="624.531" cy="3349.26" rx="3.5305" ry="3.53051" fill="#F4BEBD"/>
<ellipse cx="645.716" cy="3349.26" rx="3.5305" ry="3.53051" fill="#F4BEBD"/>
<ellipse cx="666.895" cy="3349.26" rx="3.5305" ry="3.53051" fill="#F4BEBD"/>
<ellipse cx="688.08" cy="3349.26" rx="3.5305" ry="3.53051" fill="#F4BEBD"/>
<ellipse cx="709.263" cy="3349.26" rx="3.53049" ry="3.53051" fill="#F4BEBD"/>
<ellipse cx="730.445" cy="3349.26" rx="3.5305" ry="3.53051" fill="#F4BEBD"/>
<ellipse cx="751.627" cy="3349.26" rx="3.53047" ry="3.53051" fill="#F4BEBD"/>
<ellipse cx="624.531" cy="3370.45" rx="3.5305" ry="3.5305" fill="#F4BEBD"/>
<ellipse cx="645.716" cy="3370.45" rx="3.5305" ry="3.5305" fill="#F4BEBD"/>
<ellipse cx="666.895" cy="3370.45" rx="3.5305" ry="3.5305" fill="#F4BEBD"/>
<ellipse cx="688.08" cy="3370.45" rx="3.5305" ry="3.5305" fill="#F4BEBD"/>
<ellipse cx="709.263" cy="3370.45" rx="3.53049" ry="3.5305" fill="#F4BEBD"/>
<circle cx="730.445" cy="3370.45" r="3.5305" fill="#F4BEBD"/>
<ellipse cx="751.627" cy="3370.45" rx="3.53047" ry="3.5305" fill="#F4BEBD"/>
<ellipse cx="624.531" cy="3391.63" rx="3.5305" ry="3.53047" fill="#F4BEBD"/>
<ellipse cx="645.716" cy="3391.63" rx="3.5305" ry="3.53047" fill="#F4BEBD"/>
<ellipse cx="666.895" cy="3391.63" rx="3.5305" ry="3.53047" fill="#F4BEBD"/>
<ellipse cx="688.08" cy="3391.63" rx="3.5305" ry="3.53047" fill="#F4BEBD"/>
<ellipse cx="709.263" cy="3391.63" rx="3.53049" ry="3.53047" fill="#F4BEBD"/>
<ellipse cx="730.445" cy="3391.63" rx="3.5305" ry="3.53047" fill="#F4BEBD"/>
<circle cx="751.627" cy="3391.63" r="3.53047" fill="#F4BEBD"/>
<ellipse cx="624.531" cy="3412.81" rx="3.5305" ry="3.53051" fill="#F4BEBD"/>
<ellipse cx="645.716" cy="3412.81" rx="3.5305" ry="3.53051" fill="#F4BEBD"/>
<ellipse cx="666.895" cy="3412.81" rx="3.5305" ry="3.53051" fill="#F4BEBD"/>
<ellipse cx="688.08" cy="3412.81" rx="3.5305" ry="3.53051" fill="#F4BEBD"/>
<ellipse cx="709.263" cy="3412.81" rx="3.53049" ry="3.53051" fill="#F4BEBD"/>
<ellipse cx="730.445" cy="3412.81" rx="3.5305" ry="3.53051" fill="#F4BEBD"/>
<ellipse cx="751.627" cy="3412.81" rx="3.53047" ry="3.53051" fill="#F4BEBD"/>
<ellipse cx="624.531" cy="3433.99" rx="3.5305" ry="3.5305" fill="#F4BEBD"/>
<ellipse cx="645.716" cy="3433.99" rx="3.5305" ry="3.5305" fill="#F4BEBD"/>
<ellipse cx="666.895" cy="3433.99" rx="3.5305" ry="3.5305" fill="#F4BEBD"/>
<ellipse cx="688.08" cy="3433.99" rx="3.5305" ry="3.5305" fill="#F4BEBD"/>
<ellipse cx="709.263" cy="3433.99" rx="3.53049" ry="3.5305" fill="#F4BEBD"/>
<circle cx="730.445" cy="3433.99" r="3.5305" fill="#F4BEBD"/>
<ellipse cx="751.627" cy="3433.99" rx="3.53047" ry="3.5305" fill="#F4BEBD"/>
<ellipse cx="624.531" cy="3455.18" rx="3.5305" ry="3.53049" fill="#F4BEBD"/>
<ellipse cx="645.716" cy="3455.18" rx="3.5305" ry="3.53049" fill="#F4BEBD"/>
<ellipse cx="666.895" cy="3455.18" rx="3.5305" ry="3.53049" fill="#F4BEBD"/>
<ellipse cx="688.08" cy="3455.18" rx="3.5305" ry="3.53049" fill="#F4BEBD"/>
<circle cx="709.263" cy="3455.18" r="3.53049" fill="#F4BEBD"/>
<ellipse cx="730.445" cy="3455.18" rx="3.5305" ry="3.53049" fill="#F4BEBD"/>
<ellipse cx="751.627" cy="3455.18" rx="3.53047" ry="3.53049" fill="#F4BEBD"/>
<ellipse cx="624.531" cy="3476.36" rx="3.5305" ry="3.53049" fill="#F4BEBD"/>
<ellipse cx="645.716" cy="3476.36" rx="3.5305" ry="3.53049" fill="#F4BEBD"/>
<ellipse cx="666.895" cy="3476.36" rx="3.5305" ry="3.53049" fill="#F4BEBD"/>
<ellipse cx="688.08" cy="3476.36" rx="3.5305" ry="3.53049" fill="#F4BEBD"/>
<ellipse cx="709.263" cy="3476.36" rx="3.53049" ry="3.53049" fill="#F4BEBD"/>
<ellipse cx="730.445" cy="3476.36" rx="3.5305" ry="3.53049" fill="#F4BEBD"/>
<ellipse cx="751.627" cy="3476.36" rx="3.53047" ry="3.53049" fill="#F4BEBD"/>
</g>
<path d="M384 1444.5C384 1475.43 377.921 1506.05 366.112 1534.62C354.302 1563.19 336.992 1589.16 315.17 1611.02C293.348 1632.89 267.442 1650.24 238.931 1662.07C210.419 1673.91 179.861 1680 149 1680L149 1444.5L384 1444.5Z" fill="url(#paint0_linear)"/>
<path d="M149 1680C119.059 1680 89.4104 1674.09 61.7482 1662.61C34.0859 1651.12 8.95142 1634.29 -12.2203 1613.07C-33.3921 1591.86 -50.1865 1566.67 -61.6445 1538.94C-73.1026 1511.22 -79 1481.51 -79 1451.5L149 1451.5L149 1680Z" fill="#BBCFF5"/>
<g opacity="0.3">
<circle cx="448.53" cy="1067.53" r="4.53" fill="#F4BEBD"/>
<ellipse cx="475.71" cy="1067.53" rx="4.53" ry="4.53" fill="#F4BEBD"/>
<ellipse cx="502.889" cy="1067.53" rx="4.53" ry="4.53" fill="#F4BEBD"/>
<ellipse cx="530.07" cy="1067.53" rx="4.53" ry="4.53" fill="#F4BEBD"/>
<ellipse cx="557.251" cy="1067.53" rx="4.52999" ry="4.53" fill="#F4BEBD"/>
<ellipse cx="584.43" cy="1067.53" rx="4.53001" ry="4.53" fill="#F4BEBD"/>
<ellipse cx="611.609" cy="1067.53" rx="4.52998" ry="4.53" fill="#F4BEBD"/>
<ellipse cx="638.789" cy="1067.53" rx="4.53001" ry="4.53" fill="#F4BEBD"/>
<ellipse cx="665.97" cy="1067.53" rx="4.53001" ry="4.53" fill="#F4BEBD"/>
<ellipse cx="693.15" cy="1067.53" rx="4.52999" ry="4.53" fill="#F4BEBD"/>
<ellipse cx="720.33" cy="1067.53" rx="4.53" ry="4.53" fill="#F4BEBD"/>
<ellipse cx="448.53" cy="1094.71" rx="4.53" ry="4.53" fill="#F4BEBD"/>
<ellipse cx="475.71" cy="1094.71" rx="4.53" ry="4.53" fill="#F4BEBD"/>
<ellipse cx="502.889" cy="1094.71" rx="4.53" ry="4.53" fill="#F4BEBD"/>
<ellipse cx="530.07" cy="1094.71" rx="4.53" ry="4.53" fill="#F4BEBD"/>
<ellipse cx="557.251" cy="1094.71" rx="4.52999" ry="4.53" fill="#F4BEBD"/>
<ellipse cx="584.43" cy="1094.71" rx="4.53001" ry="4.53" fill="#F4BEBD"/>
<ellipse cx="611.609" cy="1094.71" rx="4.52998" ry="4.53" fill="#F4BEBD"/>
<ellipse cx="638.789" cy="1094.71" rx="4.53001" ry="4.53" fill="#F4BEBD"/>
<ellipse cx="665.97" cy="1094.71" rx="4.53001" ry="4.53" fill="#F4BEBD"/>
<ellipse cx="693.15" cy="1094.71" rx="4.52999" ry="4.53" fill="#F4BEBD"/>
<circle cx="720.33" cy="1094.71" r="4.53" fill="#F4BEBD"/>
<circle cx="448.53" cy="1121.89" r="4.53" fill="#F4BEBD"/>
<ellipse cx="475.71" cy="1121.89" rx="4.53" ry="4.53" fill="#F4BEBD"/>
<ellipse cx="502.889" cy="1121.89" rx="4.53" ry="4.53" fill="#F4BEBD"/>
<ellipse cx="530.07" cy="1121.89" rx="4.53" ry="4.53" fill="#F4BEBD"/>
<ellipse cx="557.251" cy="1121.89" rx="4.52999" ry="4.53" fill="#F4BEBD"/>
<ellipse cx="584.43" cy="1121.89" rx="4.53001" ry="4.53" fill="#F4BEBD"/>
<ellipse cx="611.609" cy="1121.89" rx="4.52998" ry="4.53" fill="#F4BEBD"/>
<ellipse cx="638.789" cy="1121.89" rx="4.53001" ry="4.53" fill="#F4BEBD"/>
<ellipse cx="665.97" cy="1121.89" rx="4.53001" ry="4.53" fill="#F4BEBD"/>
<ellipse cx="693.15" cy="1121.89" rx="4.52999" ry="4.53" fill="#F4BEBD"/>
<ellipse cx="720.33" cy="1121.89" rx="4.53" ry="4.53" fill="#F4BEBD"/>
<ellipse cx="448.53" cy="1149.07" rx="4.53" ry="4.53" fill="#F4BEBD"/>
<ellipse cx="475.71" cy="1149.07" rx="4.53" ry="4.53" fill="#F4BEBD"/>
<circle cx="502.889" cy="1149.07" r="4.53" fill="#F4BEBD"/>
<circle cx="530.07" cy="1149.07" r="4.53" fill="#F4BEBD"/>
<ellipse cx="557.251" cy="1149.07" rx="4.52999" ry="4.53" fill="#F4BEBD"/>
<ellipse cx="584.43" cy="1149.07" rx="4.53001" ry="4.53" fill="#F4BEBD"/>
<ellipse cx="611.609" cy="1149.07" rx="4.52998" ry="4.53" fill="#F4BEBD"/>
<ellipse cx="638.789" cy="1149.07" rx="4.53001" ry="4.53" fill="#F4BEBD"/>
<ellipse cx="665.97" cy="1149.07" rx="4.53001" ry="4.53" fill="#F4BEBD"/>
<ellipse cx="693.15" cy="1149.07" rx="4.52999" ry="4.53" fill="#F4BEBD"/>
<ellipse cx="720.33" cy="1149.07" rx="4.53" ry="4.53" fill="#F4BEBD"/>
<ellipse cx="448.53" cy="1176.25" rx="4.53" ry="4.53001" fill="#F4BEBD"/>
<ellipse cx="475.71" cy="1176.25" rx="4.53" ry="4.53001" fill="#F4BEBD"/>
<ellipse cx="502.889" cy="1176.25" rx="4.53" ry="4.53001" fill="#F4BEBD"/>
<ellipse cx="530.07" cy="1176.25" rx="4.53" ry="4.53001" fill="#F4BEBD"/>
<ellipse cx="557.251" cy="1176.25" rx="4.52999" ry="4.53001" fill="#F4BEBD"/>
<ellipse cx="584.43" cy="1176.25" rx="4.53001" ry="4.53001" fill="#F4BEBD"/>
<ellipse cx="611.609" cy="1176.25" rx="4.52998" ry="4.53001" fill="#F4BEBD"/>
<ellipse cx="638.789" cy="1176.25" rx="4.53001" ry="4.53001" fill="#F4BEBD"/>
<ellipse cx="665.97" cy="1176.25" rx="4.53001" ry="4.53001" fill="#F4BEBD"/>
<ellipse cx="693.15" cy="1176.25" rx="4.52999" ry="4.53001" fill="#F4BEBD"/>
<ellipse cx="720.33" cy="1176.25" rx="4.53" ry="4.53001" fill="#F4BEBD"/>
<ellipse cx="448.53" cy="1203.43" rx="4.53" ry="4.53001" fill="#F4BEBD"/>
<ellipse cx="475.71" cy="1203.43" rx="4.53" ry="4.53001" fill="#F4BEBD"/>
<ellipse cx="502.889" cy="1203.43" rx="4.53" ry="4.53001" fill="#F4BEBD"/>
<ellipse cx="530.07" cy="1203.43" rx="4.53" ry="4.53001" fill="#F4BEBD"/>
<ellipse cx="557.251" cy="1203.43" rx="4.52999" ry="4.53001" fill="#F4BEBD"/>
<ellipse cx="584.43" cy="1203.43" rx="4.53001" ry="4.53001" fill="#F4BEBD"/>
<ellipse cx="611.609" cy="1203.43" rx="4.52998" ry="4.53001" fill="#F4BEBD"/>
<circle cx="638.789" cy="1203.43" r="4.53001" fill="#F4BEBD"/>
<circle cx="665.97" cy="1203.43" r="4.53001" fill="#F4BEBD"/>
<ellipse cx="693.15" cy="1203.43" rx="4.52999" ry="4.53001" fill="#F4BEBD"/>
<ellipse cx="720.33" cy="1203.43" rx="4.53" ry="4.53001" fill="#F4BEBD"/>
<ellipse cx="448.53" cy="1230.61" rx="4.53" ry="4.52999" fill="#F4BEBD"/>
<ellipse cx="475.71" cy="1230.61" rx="4.53" ry="4.52999" fill="#F4BEBD"/>
<ellipse cx="502.889" cy="1230.61" rx="4.53" ry="4.52999" fill="#F4BEBD"/>
<ellipse cx="530.07" cy="1230.61" rx="4.53" ry="4.52999" fill="#F4BEBD"/>
<ellipse cx="557.251" cy="1230.61" rx="4.52999" ry="4.52999" fill="#F4BEBD"/>
<ellipse cx="584.43" cy="1230.61" rx="4.53001" ry="4.52999" fill="#F4BEBD"/>
<ellipse cx="611.609" cy="1230.61" rx="4.52998" ry="4.52999" fill="#F4BEBD"/>
<ellipse cx="638.789" cy="1230.61" rx="4.53001" ry="4.52999" fill="#F4BEBD"/>
<ellipse cx="665.97" cy="1230.61" rx="4.53001" ry="4.52999" fill="#F4BEBD"/>
<circle cx="693.15" cy="1230.61" r="4.52999" fill="#F4BEBD"/>
<ellipse cx="720.33" cy="1230.61" rx="4.53" ry="4.52999" fill="#F4BEBD"/>
<ellipse cx="448.53" cy="1257.79" rx="4.53" ry="4.53" fill="#F4BEBD"/>
<ellipse cx="475.71" cy="1257.79" rx="4.53" ry="4.53" fill="#F4BEBD"/>
<ellipse cx="502.889" cy="1257.79" rx="4.53" ry="4.53" fill="#F4BEBD"/>
<ellipse cx="530.07" cy="1257.79" rx="4.53" ry="4.53" fill="#F4BEBD"/>
<ellipse cx="557.251" cy="1257.79" rx="4.52999" ry="4.53" fill="#F4BEBD"/>
<ellipse cx="584.43" cy="1257.79" rx="4.53001" ry="4.53" fill="#F4BEBD"/>
<ellipse cx="611.609" cy="1257.79" rx="4.52998" ry="4.53" fill="#F4BEBD"/>
<ellipse cx="638.789" cy="1257.79" rx="4.53001" ry="4.53" fill="#F4BEBD"/>
<ellipse cx="665.97" cy="1257.79" rx="4.53001" ry="4.53" fill="#F4BEBD"/>
<ellipse cx="693.15" cy="1257.79" rx="4.52999" ry="4.53" fill="#F4BEBD"/>
<circle cx="720.33" cy="1257.79" r="4.53" fill="#F4BEBD"/>
<ellipse cx="448.53" cy="1284.97" rx="4.53" ry="4.53001" fill="#F4BEBD"/>
<ellipse cx="475.71" cy="1284.97" rx="4.53" ry="4.53001" fill="#F4BEBD"/>
<ellipse cx="502.889" cy="1284.97" rx="4.53" ry="4.53001" fill="#F4BEBD"/>
<ellipse cx="530.07" cy="1284.97" rx="4.53" ry="4.53001" fill="#F4BEBD"/>
<ellipse cx="557.251" cy="1284.97" rx="4.52999" ry="4.53001" fill="#F4BEBD"/>
<ellipse cx="584.43" cy="1284.97" rx="4.53001" ry="4.53001" fill="#F4BEBD"/>
<ellipse cx="611.609" cy="1284.97" rx="4.52998" ry="4.53001" fill="#F4BEBD"/>
<circle cx="638.789" cy="1284.97" r="4.53001" fill="#F4BEBD"/>
<circle cx="665.97" cy="1284.97" r="4.53001" fill="#F4BEBD"/>
<ellipse cx="693.15" cy="1284.97" rx="4.52999" ry="4.53001" fill="#F4BEBD"/>
<ellipse cx="720.33" cy="1284.97" rx="4.53" ry="4.53001" fill="#F4BEBD"/>
<ellipse cx="448.53" cy="1312.15" rx="4.53" ry="4.53001" fill="#F4BEBD"/>
<ellipse cx="475.71" cy="1312.15" rx="4.53" ry="4.53001" fill="#F4BEBD"/>
<ellipse cx="502.889" cy="1312.15" rx="4.53" ry="4.53001" fill="#F4BEBD"/>
<ellipse cx="530.07" cy="1312.15" rx="4.53" ry="4.53001" fill="#F4BEBD"/>
<ellipse cx="557.251" cy="1312.15" rx="4.52999" ry="4.53001" fill="#F4BEBD"/>
<circle cx="584.43" cy="1312.15" r="4.53001" fill="#F4BEBD"/>
<ellipse cx="611.609" cy="1312.15" rx="4.52998" ry="4.53001" fill="#F4BEBD"/>
<ellipse cx="638.789" cy="1312.15" rx="4.53001" ry="4.53001" fill="#F4BEBD"/>
<ellipse cx="665.97" cy="1312.15" rx="4.53001" ry="4.53001" fill="#F4BEBD"/>
<ellipse cx="693.15" cy="1312.15" rx="4.52999" ry="4.53001" fill="#F4BEBD"/>
<ellipse cx="720.33" cy="1312.15" rx="4.53" ry="4.53001" fill="#F4BEBD"/>
<ellipse cx="448.53" cy="1339.33" rx="4.53" ry="4.53" fill="#F4BEBD"/>
<ellipse cx="475.71" cy="1339.33" rx="4.53" ry="4.53" fill="#F4BEBD"/>
<ellipse cx="502.889" cy="1339.33" rx="4.53" ry="4.53" fill="#F4BEBD"/>
<ellipse cx="530.07" cy="1339.33" rx="4.53" ry="4.53" fill="#F4BEBD"/>
<ellipse cx="557.251" cy="1339.33" rx="4.52999" ry="4.53" fill="#F4BEBD"/>
<ellipse cx="584.43" cy="1339.33" rx="4.53001" ry="4.53" fill="#F4BEBD"/>
<ellipse cx="611.609" cy="1339.33" rx="4.52998" ry="4.53" fill="#F4BEBD"/>
<ellipse cx="638.789" cy="1339.33" rx="4.53001" ry="4.53" fill="#F4BEBD"/>
<ellipse cx="665.97" cy="1339.33" rx="4.53001" ry="4.53" fill="#F4BEBD"/>
<ellipse cx="693.15" cy="1339.33" rx="4.52999" ry="4.53" fill="#F4BEBD"/>
<circle cx="720.33" cy="1339.33" r="4.53" fill="#F4BEBD"/>
</g>
<path d="M712 1878C775.29 1878 837.159 1896.91 889.782 1932.35C942.406 1967.79 983.421 2018.16 1007.64 2077.08C1031.86 2136.01 1038.2 2200.86 1025.85 2263.42C1013.5 2325.98 983.027 2383.44 938.274 2428.54C893.521 2473.64 836.503 2504.36 774.429 2516.8C712.355 2529.25 648.014 2522.86 589.541 2498.45C531.069 2474.04 481.092 2432.71 445.93 2379.67C410.768 2326.64 392 2264.28 392 2200.5L712 2200.5L712 1878Z" fill="url(#paint1_linear)"/>
<path d="M-0.500007 918C32.6588 918 65.4929 924.583 96.1276 937.373C126.762 950.162 154.598 968.909 178.044 992.541C201.491 1016.17 220.09 1044.23 232.78 1075.11C245.469 1105.98 252 1139.08 252 1172.5L-0.499996 1172.5L-0.500007 918Z" fill="#3A42B6"/>
<circle opacity="0.5" cx="705.457" cy="194.915" r="103.755" fill="black"/>
<path d="M-2.83327 265.084C-2.83327 253.822 -0.614966 242.67 3.695 232.264C8.00497 221.859 14.3222 212.405 22.286 204.441C30.2498 196.477 39.7041 190.16 50.1093 185.85C60.5145 181.54 71.6667 179.322 82.9292 179.322L82.9292 265.084L-2.83327 265.084Z" fill="#221668"/>
<path d="M168.692 265.084C168.692 276.346 166.473 287.498 162.163 297.904C157.853 308.309 151.536 317.763 143.572 325.727C135.609 333.691 126.154 340.008 115.749 344.318C105.344 348.628 94.1916 350.846 82.9291 350.846V265.084H168.692Z" fill="#BBCFF5"/>
<path d="M835.001 755.929C835.001 777.194 830.812 798.251 822.675 817.897C814.537 837.543 802.609 855.394 787.573 870.43C772.536 885.467 754.685 897.394 735.039 905.532C715.393 913.67 694.337 917.858 673.072 917.858C651.807 917.858 630.75 913.67 611.104 905.532C591.458 897.394 573.607 885.467 558.571 870.43C543.534 855.394 531.606 837.543 523.469 817.897C515.331 798.251 511.143 777.194 511.143 755.929L673.072 755.929H835.001Z" fill="#1B27C1"/>
<path d="M835.001 756.529C835.001 735.264 830.812 714.207 822.675 694.561C814.537 674.915 802.609 657.064 787.573 642.028C772.536 626.991 754.685 615.064 735.039 606.926C715.393 598.788 694.337 594.6 673.072 594.6V756.529H835.001Z" fill="#BBCFF5"/>
<path d="M744.439 756.529C744.439 765.901 742.593 775.182 739.006 783.841C735.419 792.499 730.163 800.367 723.535 806.994C716.908 813.621 709.04 818.878 700.382 822.465C691.723 826.052 682.442 827.898 673.07 827.898L673.07 756.529L744.439 756.529Z" fill="#BBCFF5"/>
<g opacity="0.3" clip-path="url(#clip0)">
<circle cx="512.569" cy="2.62685" r="2.62685" fill="#F4BEBD"/>
<ellipse cx="528.33" cy="2.62685" rx="2.62685" ry="2.62685" fill="#F4BEBD"/>
<ellipse cx="544.091" cy="2.62685" rx="2.62685" ry="2.62685" fill="#F4BEBD"/>
<ellipse cx="559.852" cy="2.62685" rx="2.62685" ry="2.62685" fill="#F4BEBD"/>
<ellipse cx="575.614" cy="2.62685" rx="2.62685" ry="2.62685" fill="#F4BEBD"/>
<ellipse cx="591.374" cy="2.62685" rx="2.62685" ry="2.62685" fill="#F4BEBD"/>
<ellipse cx="607.136" cy="2.62685" rx="2.62685" ry="2.62685" fill="#F4BEBD"/>
<ellipse cx="622.896" cy="2.62685" rx="2.62685" ry="2.62685" fill="#F4BEBD"/>
<ellipse cx="638.658" cy="2.62685" rx="2.62685" ry="2.62685" fill="#F4BEBD"/>
<ellipse cx="654.419" cy="2.62685" rx="2.62685" ry="2.62685" fill="#F4BEBD"/>
<ellipse cx="670.18" cy="2.62685" rx="2.62685" ry="2.62685" fill="#F4BEBD"/>
<ellipse cx="512.569" cy="18.3876" rx="2.62685" ry="2.62685" fill="#F4BEBD"/>
<circle cx="528.33" cy="18.3876" r="2.62685" fill="#F4BEBD"/>
<ellipse cx="544.091" cy="18.3876" rx="2.62685" ry="2.62685" fill="#F4BEBD"/>
<ellipse cx="559.852" cy="18.3876" rx="2.62685" ry="2.62685" fill="#F4BEBD"/>
<ellipse cx="575.614" cy="18.3876" rx="2.62685" ry="2.62685" fill="#F4BEBD"/>
<ellipse cx="591.374" cy="18.3876" rx="2.62685" ry="2.62685" fill="#F4BEBD"/>
<ellipse cx="607.136" cy="18.3876" rx="2.62685" ry="2.62685" fill="#F4BEBD"/>
<ellipse cx="622.896" cy="18.3876" rx="2.62685" ry="2.62685" fill="#F4BEBD"/>
<ellipse cx="638.658" cy="18.3876" rx="2.62685" ry="2.62685" fill="#F4BEBD"/>
<ellipse cx="654.419" cy="18.3876" rx="2.62685" ry="2.62685" fill="#F4BEBD"/>
<ellipse cx="670.18" cy="18.3876" rx="2.62685" ry="2.62685" fill="#F4BEBD"/>
<ellipse cx="512.569" cy="34.1493" rx="2.62685" ry="2.62685" fill="#F4BEBD"/>
<circle cx="528.33" cy="34.1493" r="2.62685" fill="#F4BEBD"/>
<ellipse cx="544.091" cy="34.1493" rx="2.62685" ry="2.62685" fill="#F4BEBD"/>
<ellipse cx="559.852" cy="34.1493" rx="2.62685" ry="2.62685" fill="#F4BEBD"/>
<ellipse cx="575.614" cy="34.1493" rx="2.62685" ry="2.62685" fill="#F4BEBD"/>
<ellipse cx="591.374" cy="34.1493" rx="2.62685" ry="2.62685" fill="#F4BEBD"/>
<ellipse cx="607.136" cy="34.1493" rx="2.62685" ry="2.62685" fill="#F4BEBD"/>
<ellipse cx="622.896" cy="34.1493" rx="2.62685" ry="2.62685" fill="#F4BEBD"/>
<ellipse cx="638.658" cy="34.1493" rx="2.62685" ry="2.62685" fill="#F4BEBD"/>
<ellipse cx="654.419" cy="34.1493" rx="2.62685" ry="2.62685" fill="#F4BEBD"/>
<ellipse cx="670.18" cy="34.1493" rx="2.62685" ry="2.62685" fill="#F4BEBD"/>
<ellipse cx="512.569" cy="49.9101" rx="2.62685" ry="2.62685" fill="#F4BEBD"/>
<ellipse cx="528.33" cy="49.9101" rx="2.62685" ry="2.62685" fill="#F4BEBD"/>
<circle cx="544.091" cy="49.9101" r="2.62685" fill="#F4BEBD"/>
<circle cx="559.852" cy="49.9101" r="2.62685" fill="#F4BEBD"/>
<ellipse cx="575.614" cy="49.9101" rx="2.62685" ry="2.62685" fill="#F4BEBD"/>
<circle cx="591.374" cy="49.9101" r="2.62685" fill="#F4BEBD"/>
<ellipse cx="607.136" cy="49.9101" rx="2.62685" ry="2.62685" fill="#F4BEBD"/>
<circle cx="622.896" cy="49.9101" r="2.62685" fill="#F4BEBD"/>
<circle cx="638.658" cy="49.9101" r="2.62685" fill="#F4BEBD"/>
<ellipse cx="654.419" cy="49.9101" rx="2.62685" ry="2.62685" fill="#F4BEBD"/>
<ellipse cx="670.18" cy="49.9101" rx="2.62685" ry="2.62685" fill="#F4BEBD"/>
<ellipse cx="512.569" cy="65.6708" rx="2.62685" ry="2.62685" fill="#F4BEBD"/>
<ellipse cx="528.33" cy="65.6708" rx="2.62685" ry="2.62685" fill="#F4BEBD"/>
<ellipse cx="544.091" cy="65.6708" rx="2.62685" ry="2.62685" fill="#F4BEBD"/>
<ellipse cx="559.852" cy="65.6708" rx="2.62685" ry="2.62685" fill="#F4BEBD"/>
<circle cx="575.614" cy="65.6708" r="2.62685" fill="#F4BEBD"/>
<ellipse cx="591.374" cy="65.6708" rx="2.62685" ry="2.62685" fill="#F4BEBD"/>
<ellipse cx="607.136" cy="65.6708" rx="2.62685" ry="2.62685" fill="#F4BEBD"/>
<ellipse cx="622.896" cy="65.6708" rx="2.62685" ry="2.62685" fill="#F4BEBD"/>
<ellipse cx="638.658" cy="65.6708" rx="2.62685" ry="2.62685" fill="#F4BEBD"/>
<ellipse cx="654.419" cy="65.6708" rx="2.62685" ry="2.62685" fill="#F4BEBD"/>
<ellipse cx="670.18" cy="65.6708" rx="2.62685" ry="2.62685" fill="#F4BEBD"/>
<ellipse cx="512.569" cy="81.4325" rx="2.62685" ry="2.62685" fill="#F4BEBD"/>
<ellipse cx="528.33" cy="81.4325" rx="2.62685" ry="2.62685" fill="#F4BEBD"/>
<circle cx="544.091" cy="81.4325" r="2.62685" fill="#F4BEBD"/>
<circle cx="559.852" cy="81.4325" r="2.62685" fill="#F4BEBD"/>
<ellipse cx="575.614" cy="81.4325" rx="2.62685" ry="2.62685" fill="#F4BEBD"/>
<circle cx="591.374" cy="81.4325" r="2.62685" fill="#F4BEBD"/>
<ellipse cx="607.136" cy="81.4325" rx="2.62685" ry="2.62685" fill="#F4BEBD"/>
<circle cx="622.896" cy="81.4325" r="2.62685" fill="#F4BEBD"/>
<circle cx="638.658" cy="81.4325" r="2.62685" fill="#F4BEBD"/>
<ellipse cx="654.419" cy="81.4325" rx="2.62685" ry="2.62685" fill="#F4BEBD"/>
<ellipse cx="670.18" cy="81.4325" rx="2.62685" ry="2.62685" fill="#F4BEBD"/>
<ellipse cx="512.569" cy="97.1933" rx="2.62685" ry="2.62685" fill="#F4BEBD"/>
<ellipse cx="528.33" cy="97.1933" rx="2.62685" ry="2.62685" fill="#F4BEBD"/>
<ellipse cx="544.091" cy="97.1933" rx="2.62685" ry="2.62685" fill="#F4BEBD"/>
<ellipse cx="559.852" cy="97.1933" rx="2.62685" ry="2.62685" fill="#F4BEBD"/>
<ellipse cx="575.614" cy="97.1933" rx="2.62685" ry="2.62685" fill="#F4BEBD"/>
<ellipse cx="591.374" cy="97.1933" rx="2.62685" ry="2.62685" fill="#F4BEBD"/>
<circle cx="607.136" cy="97.1933" r="2.62685" fill="#F4BEBD"/>
<ellipse cx="622.896" cy="97.1933" rx="2.62685" ry="2.62685" fill="#F4BEBD"/>
<ellipse cx="638.658" cy="97.1933" rx="2.62685" ry="2.62685" fill="#F4BEBD"/>
<ellipse cx="654.419" cy="97.1933" rx="2.62685" ry="2.62685" fill="#F4BEBD"/>
<circle cx="670.18" cy="97.1933" r="2.62685" fill="#F4BEBD"/>
<ellipse cx="512.569" cy="112.955" rx="2.62685" ry="2.62685" fill="#F4BEBD"/>
<ellipse cx="528.33" cy="112.955" rx="2.62685" ry="2.62685" fill="#F4BEBD"/>
<circle cx="544.091" cy="112.955" r="2.62685" fill="#F4BEBD"/>
<circle cx="559.852" cy="112.955" r="2.62685" fill="#F4BEBD"/>
<ellipse cx="575.614" cy="112.955" rx="2.62685" ry="2.62685" fill="#F4BEBD"/>
<circle cx="591.374" cy="112.955" r="2.62685" fill="#F4BEBD"/>
<ellipse cx="607.136" cy="112.955" rx="2.62685" ry="2.62685" fill="#F4BEBD"/>
<circle cx="622.896" cy="112.955" r="2.62685" fill="#F4BEBD"/>
<circle cx="638.658" cy="112.955" r="2.62685" fill="#F4BEBD"/>
<ellipse cx="654.419" cy="112.955" rx="2.62685" ry="2.62685" fill="#F4BEBD"/>
<ellipse cx="670.18" cy="112.955" rx="2.62685" ry="2.62685" fill="#F4BEBD"/>
<ellipse cx="512.569" cy="128.716" rx="2.62685" ry="2.62685" fill="#F4BEBD"/>
<ellipse cx="528.33" cy="128.716" rx="2.62685" ry="2.62685" fill="#F4BEBD"/>
<circle cx="544.091" cy="128.716" r="2.62685" fill="#F4BEBD"/>
<circle cx="559.852" cy="128.716" r="2.62685" fill="#F4BEBD"/>
<ellipse cx="575.614" cy="128.716" rx="2.62685" ry="2.62685" fill="#F4BEBD"/>
<circle cx="591.374" cy="128.716" r="2.62685" fill="#F4BEBD"/>
<ellipse cx="607.136" cy="128.716" rx="2.62685" ry="2.62685" fill="#F4BEBD"/>
<circle cx="622.896" cy="128.716" r="2.62685" fill="#F4BEBD"/>
<circle cx="638.658" cy="128.716" r="2.62685" fill="#F4BEBD"/>
<ellipse cx="654.419" cy="128.716" rx="2.62685" ry="2.62685" fill="#F4BEBD"/>
<ellipse cx="670.18" cy="128.716" rx="2.62685" ry="2.62685" fill="#F4BEBD"/>
<ellipse cx="512.569" cy="144.477" rx="2.62685" ry="2.62685" fill="#F4BEBD"/>
<ellipse cx="528.33" cy="144.477" rx="2.62685" ry="2.62685" fill="#F4BEBD"/>
<ellipse cx="544.091" cy="144.477" rx="2.62685" ry="2.62685" fill="#F4BEBD"/>
<ellipse cx="559.852" cy="144.477" rx="2.62685" ry="2.62685" fill="#F4BEBD"/>
<ellipse cx="575.614" cy="144.477" rx="2.62685" ry="2.62685" fill="#F4BEBD"/>
<ellipse cx="591.374" cy="144.477" rx="2.62685" ry="2.62685" fill="#F4BEBD"/>
<ellipse cx="607.136" cy="144.477" rx="2.62685" ry="2.62685" fill="#F4BEBD"/>
<ellipse cx="622.896" cy="144.477" rx="2.62685" ry="2.62685" fill="#F4BEBD"/>
<ellipse cx="638.658" cy="144.477" rx="2.62685" ry="2.62685" fill="#F4BEBD"/>
<circle cx="654.419" cy="144.477" r="2.62685" fill="#F4BEBD"/>
<ellipse cx="670.18" cy="144.477" rx="2.62685" ry="2.62685" fill="#F4BEBD"/>
<ellipse cx="512.569" cy="160.238" rx="2.62685" ry="2.62685" fill="#F4BEBD"/>
<ellipse cx="528.33" cy="160.238" rx="2.62685" ry="2.62685" fill="#F4BEBD"/>
<ellipse cx="544.091" cy="160.238" rx="2.62685" ry="2.62685" fill="#F4BEBD"/>
<ellipse cx="559.852" cy="160.238" rx="2.62685" ry="2.62685" fill="#F4BEBD"/>
<ellipse cx="575.614" cy="160.238" rx="2.62685" ry="2.62685" fill="#F4BEBD"/>
<ellipse cx="591.374" cy="160.238" rx="2.62685" ry="2.62685" fill="#F4BEBD"/>
<ellipse cx="607.136" cy="160.238" rx="2.62685" ry="2.62685" fill="#F4BEBD"/>
<ellipse cx="622.896" cy="160.238" rx="2.62685" ry="2.62685" fill="#F4BEBD"/>
<ellipse cx="638.658" cy="160.238" rx="2.62685" ry="2.62685" fill="#F4BEBD"/>
<circle cx="654.419" cy="160.238" r="2.62685" fill="#F4BEBD"/>
<ellipse cx="670.18" cy="160.238" rx="2.62685" ry="2.62685" fill="#F4BEBD"/>
</g>
<g opacity="0.3" clip-path="url(#clip1)">
<ellipse cx="7.83912" cy="224.275" rx="1.77223" ry="1.77222" fill="#F4BEBD"/>
<ellipse cx="18.4725" cy="224.275" rx="1.77222" ry="1.77222" fill="#F4BEBD"/>
<ellipse cx="29.1054" cy="224.275" rx="1.77223" ry="1.77222" fill="#F4BEBD"/>
<ellipse cx="7.83912" cy="234.909" rx="1.77223" ry="1.77222" fill="#F4BEBD"/>
<ellipse cx="18.4725" cy="234.909" rx="1.77222" ry="1.77222" fill="#F4BEBD"/>
<ellipse cx="29.1054" cy="234.909" rx="1.77223" ry="1.77222" fill="#F4BEBD"/>
<ellipse cx="7.83912" cy="245.542" rx="1.77223" ry="1.77222" fill="#F4BEBD"/>
<ellipse cx="18.4725" cy="245.542" rx="1.77222" ry="1.77222" fill="#F4BEBD"/>
<ellipse cx="29.1054" cy="245.542" rx="1.77223" ry="1.77222" fill="#F4BEBD"/>
<ellipse cx="7.83912" cy="256.176" rx="1.77223" ry="1.77223" fill="#F4BEBD"/>
<ellipse cx="18.4725" cy="256.176" rx="1.77222" ry="1.77223" fill="#F4BEBD"/>
<ellipse cx="29.1054" cy="256.176" rx="1.77223" ry="1.77223" fill="#F4BEBD"/>
<circle cx="7.83912" cy="266.808" r="1.77223" fill="#F4BEBD"/>
<ellipse cx="18.4725" cy="266.808" rx="1.77222" ry="1.77223" fill="#F4BEBD"/>
<ellipse cx="29.1054" cy="266.808" rx="1.77223" ry="1.77223" fill="#F4BEBD"/>
<circle cx="7.83912" cy="277.442" r="1.77223" fill="#F4BEBD"/>
<ellipse cx="18.4725" cy="277.442" rx="1.77222" ry="1.77223" fill="#F4BEBD"/>
<ellipse cx="29.1054" cy="277.442" rx="1.77223" ry="1.77223" fill="#F4BEBD"/>
<ellipse cx="7.83912" cy="288.075" rx="1.77223" ry="1.77222" fill="#F4BEBD"/>
<ellipse cx="18.4725" cy="288.075" rx="1.77222" ry="1.77222" fill="#F4BEBD"/>
<ellipse cx="29.1054" cy="288.075" rx="1.77223" ry="1.77222" fill="#F4BEBD"/>
<ellipse cx="7.83912" cy="298.709" rx="1.77223" ry="1.77223" fill="#F4BEBD"/>
<ellipse cx="18.4725" cy="298.709" rx="1.77222" ry="1.77223" fill="#F4BEBD"/>
<circle cx="29.1054" cy="298.709" r="1.77223" fill="#F4BEBD"/>
<circle cx="7.83912" cy="309.342" r="1.77223" fill="#F4BEBD"/>
<ellipse cx="18.4725" cy="309.342" rx="1.77222" ry="1.77223" fill="#F4BEBD"/>
<ellipse cx="29.1054" cy="309.342" rx="1.77223" ry="1.77223" fill="#F4BEBD"/>
<circle cx="7.83912" cy="319.975" r="1.77223" fill="#F4BEBD"/>
<ellipse cx="18.4725" cy="319.975" rx="1.77222" ry="1.77223" fill="#F4BEBD"/>
<ellipse cx="29.1054" cy="319.975" rx="1.77223" ry="1.77223" fill="#F4BEBD"/>
<ellipse cx="7.83912" cy="330.609" rx="1.77223" ry="1.77222" fill="#F4BEBD"/>
<ellipse cx="18.4725" cy="330.609" rx="1.77222" ry="1.77222" fill="#F4BEBD"/>
<ellipse cx="29.1054" cy="330.609" rx="1.77223" ry="1.77222" fill="#F4BEBD"/>
</g>
<path d="M632 992L503 992L632 1120L632 992Z" fill="#0454BE"/>
<path d="M746 3371.5L746 3242.5L618 3371.5L746 3371.5Z" fill="#0454BE"/>
<path d="M152 3167L152 3296L280 3167L152 3167Z" fill="#0454BE"/>
<defs>
<linearGradient id="paint0_linear" x1="149" y1="1209" x2="225.829" y2="1673.66" gradientUnits="userSpaceOnUse">
<stop stop-color="#3F58AF"/>
<stop offset="1" stop-color="#151A67"/>
</linearGradient>
<linearGradient id="paint1_linear" x1="392" y1="2200.5" x2="1023.72" y2="2097.08" gradientUnits="userSpaceOnUse">
<stop stop-color="#3F58AF"/>
<stop offset="1" stop-color="#151A67"/>
</linearGradient>
<clipPath id="clip0">
<rect width="163.129" height="163.129" fill="white" transform="translate(509.942)"/>
</clipPath>
<clipPath id="clip1">
<rect width="118.148" height="118.148" fill="white" transform="translate(-79 222.503)"/>
</clipPath>
</defs>
</svg>
