<svg width="1816" height="1273" viewBox="0 0 1816 1273" fill="none" xmlns="http://www.w3.org/2000/svg">
<path opacity="0.3" d="M522 1243C492.059 1243 462.41 1237.09 434.748 1225.61C407.086 1214.12 381.951 1197.29 360.78 1176.07C339.608 1154.86 322.814 1129.67 311.355 1101.94C299.897 1074.22 294 1044.51 294 1014.5L522 1014.5L522 1243Z" fill="#BBCFF5"/>
<path d="M1236 1003C1236 967.543 1242.98 932.433 1256.55 899.676C1270.12 866.918 1290.01 837.153 1315.08 812.081C1340.15 787.009 1369.92 767.121 1402.68 753.553C1435.43 739.984 1470.54 733 1506 733C1541.46 733 1576.57 739.984 1609.32 753.553C1642.08 767.121 1671.85 787.009 1696.92 812.081C1721.99 837.153 1741.88 866.918 1755.45 899.676C1769.02 932.433 1776 967.543 1776 1003L1506 1003L1236 1003Z" fill="#1B27C1"/>
<g opacity="0.3">
<circle cx="1548.38" cy="310.38" r="4.38" fill="#F4BEBD"/>
<circle cx="1574.66" cy="310.38" r="4.38" fill="#F4BEBD"/>
<ellipse cx="1600.94" cy="310.38" rx="4.38" ry="4.38" fill="#F4BEBD"/>
<ellipse cx="1627.22" cy="310.38" rx="4.38" ry="4.38" fill="#F4BEBD"/>
<ellipse cx="1653.5" cy="310.38" rx="4.38" ry="4.38" fill="#F4BEBD"/>
<ellipse cx="1679.78" cy="310.38" rx="4.38" ry="4.38" fill="#F4BEBD"/>
<ellipse cx="1706.06" cy="310.38" rx="4.38" ry="4.38" fill="#F4BEBD"/>
<ellipse cx="1732.34" cy="310.38" rx="4.38" ry="4.38" fill="#F4BEBD"/>
<ellipse cx="1758.62" cy="310.38" rx="4.38" ry="4.38" fill="#F4BEBD"/>
<ellipse cx="1784.9" cy="310.38" rx="4.38" ry="4.38" fill="#F4BEBD"/>
<ellipse cx="1811.18" cy="310.38" rx="4.38" ry="4.38" fill="#F4BEBD"/>
<circle cx="1548.38" cy="336.66" r="4.38" fill="#F4BEBD"/>
<circle cx="1574.66" cy="336.66" r="4.38" fill="#F4BEBD"/>
<ellipse cx="1600.94" cy="336.66" rx="4.38" ry="4.38" fill="#F4BEBD"/>
<ellipse cx="1627.22" cy="336.66" rx="4.38" ry="4.38" fill="#F4BEBD"/>
<ellipse cx="1653.5" cy="336.66" rx="4.38" ry="4.38" fill="#F4BEBD"/>
<ellipse cx="1679.78" cy="336.66" rx="4.38" ry="4.38" fill="#F4BEBD"/>
<ellipse cx="1706.06" cy="336.66" rx="4.38" ry="4.38" fill="#F4BEBD"/>
<ellipse cx="1732.34" cy="336.66" rx="4.38" ry="4.38" fill="#F4BEBD"/>
<ellipse cx="1758.62" cy="336.66" rx="4.38" ry="4.38" fill="#F4BEBD"/>
<ellipse cx="1784.9" cy="336.66" rx="4.38" ry="4.38" fill="#F4BEBD"/>
<ellipse cx="1811.18" cy="336.66" rx="4.38" ry="4.38" fill="#F4BEBD"/>
<ellipse cx="1548.38" cy="362.94" rx="4.38" ry="4.38" fill="#F4BEBD"/>
<ellipse cx="1574.66" cy="362.94" rx="4.38" ry="4.38" fill="#F4BEBD"/>
<circle cx="1600.94" cy="362.94" r="4.38" fill="#F4BEBD"/>
<ellipse cx="1627.22" cy="362.94" rx="4.38" ry="4.38" fill="#F4BEBD"/>
<ellipse cx="1653.5" cy="362.94" rx="4.38" ry="4.38" fill="#F4BEBD"/>
<ellipse cx="1679.78" cy="362.94" rx="4.38" ry="4.38" fill="#F4BEBD"/>
<ellipse cx="1706.06" cy="362.94" rx="4.38" ry="4.38" fill="#F4BEBD"/>
<ellipse cx="1732.34" cy="362.94" rx="4.38" ry="4.38" fill="#F4BEBD"/>
<ellipse cx="1758.62" cy="362.94" rx="4.38" ry="4.38" fill="#F4BEBD"/>
<ellipse cx="1784.9" cy="362.94" rx="4.38" ry="4.38" fill="#F4BEBD"/>
<ellipse cx="1811.18" cy="362.94" rx="4.38" ry="4.38" fill="#F4BEBD"/>
<ellipse cx="1548.38" cy="389.22" rx="4.38" ry="4.38" fill="#F4BEBD"/>
<ellipse cx="1574.66" cy="389.22" rx="4.38" ry="4.38" fill="#F4BEBD"/>
<ellipse cx="1600.94" cy="389.22" rx="4.38" ry="4.38" fill="#F4BEBD"/>
<circle cx="1627.22" cy="389.22" r="4.38" fill="#F4BEBD"/>
<ellipse cx="1653.5" cy="389.22" rx="4.38" ry="4.38" fill="#F4BEBD"/>
<ellipse cx="1679.78" cy="389.22" rx="4.38" ry="4.38" fill="#F4BEBD"/>
<ellipse cx="1706.06" cy="389.22" rx="4.38" ry="4.38" fill="#F4BEBD"/>
<ellipse cx="1732.34" cy="389.22" rx="4.38" ry="4.38" fill="#F4BEBD"/>
<ellipse cx="1758.62" cy="389.22" rx="4.38" ry="4.38" fill="#F4BEBD"/>
<ellipse cx="1784.9" cy="389.22" rx="4.38" ry="4.38" fill="#F4BEBD"/>
<ellipse cx="1811.18" cy="389.22" rx="4.38" ry="4.38" fill="#F4BEBD"/>
<ellipse cx="1548.38" cy="415.5" rx="4.38" ry="4.38" fill="#F4BEBD"/>
<ellipse cx="1574.66" cy="415.5" rx="4.38" ry="4.38" fill="#F4BEBD"/>
<ellipse cx="1600.94" cy="415.5" rx="4.38" ry="4.38" fill="#F4BEBD"/>
<ellipse cx="1627.22" cy="415.5" rx="4.38" ry="4.38" fill="#F4BEBD"/>
<circle cx="1653.5" cy="415.5" r="4.38" fill="#F4BEBD"/>
<ellipse cx="1679.78" cy="415.5" rx="4.38" ry="4.38" fill="#F4BEBD"/>
<circle cx="1706.06" cy="415.5" r="4.38" fill="#F4BEBD"/>
<ellipse cx="1732.34" cy="415.5" rx="4.38" ry="4.38" fill="#F4BEBD"/>
<circle cx="1758.62" cy="415.5" r="4.38" fill="#F4BEBD"/>
<circle cx="1784.9" cy="415.5" r="4.38" fill="#F4BEBD"/>
<ellipse cx="1811.18" cy="415.5" rx="4.38" ry="4.38" fill="#F4BEBD"/>
<ellipse cx="1548.38" cy="441.78" rx="4.38" ry="4.38" fill="#F4BEBD"/>
<ellipse cx="1574.66" cy="441.78" rx="4.38" ry="4.38" fill="#F4BEBD"/>
<ellipse cx="1600.94" cy="441.78" rx="4.38" ry="4.38" fill="#F4BEBD"/>
<ellipse cx="1627.22" cy="441.78" rx="4.38" ry="4.38" fill="#F4BEBD"/>
<ellipse cx="1653.5" cy="441.78" rx="4.38" ry="4.38" fill="#F4BEBD"/>
<circle cx="1679.78" cy="441.78" r="4.38" fill="#F4BEBD"/>
<ellipse cx="1706.06" cy="441.78" rx="4.38" ry="4.38" fill="#F4BEBD"/>
<circle cx="1732.34" cy="441.78" r="4.38" fill="#F4BEBD"/>
<ellipse cx="1758.62" cy="441.78" rx="4.38" ry="4.38" fill="#F4BEBD"/>
<ellipse cx="1784.9" cy="441.78" rx="4.38" ry="4.38" fill="#F4BEBD"/>
<circle cx="1811.18" cy="441.78" r="4.38" fill="#F4BEBD"/>
<ellipse cx="1548.38" cy="468.06" rx="4.38" ry="4.38" fill="#F4BEBD"/>
<ellipse cx="1574.66" cy="468.06" rx="4.38" ry="4.38" fill="#F4BEBD"/>
<ellipse cx="1600.94" cy="468.06" rx="4.38" ry="4.38" fill="#F4BEBD"/>
<ellipse cx="1627.22" cy="468.06" rx="4.38" ry="4.38" fill="#F4BEBD"/>
<circle cx="1653.5" cy="468.06" r="4.38" fill="#F4BEBD"/>
<ellipse cx="1679.78" cy="468.06" rx="4.38" ry="4.38" fill="#F4BEBD"/>
<circle cx="1706.06" cy="468.06" r="4.38" fill="#F4BEBD"/>
<ellipse cx="1732.34" cy="468.06" rx="4.38" ry="4.38" fill="#F4BEBD"/>
<circle cx="1758.62" cy="468.06" r="4.38" fill="#F4BEBD"/>
<circle cx="1784.9" cy="468.06" r="4.38" fill="#F4BEBD"/>
<ellipse cx="1811.18" cy="468.06" rx="4.38" ry="4.38" fill="#F4BEBD"/>
<ellipse cx="1548.38" cy="494.34" rx="4.38" ry="4.38" fill="#F4BEBD"/>
<ellipse cx="1574.66" cy="494.34" rx="4.38" ry="4.38" fill="#F4BEBD"/>
<ellipse cx="1600.94" cy="494.34" rx="4.38" ry="4.38" fill="#F4BEBD"/>
<ellipse cx="1627.22" cy="494.34" rx="4.38" ry="4.38" fill="#F4BEBD"/>
<ellipse cx="1653.5" cy="494.34" rx="4.38" ry="4.38" fill="#F4BEBD"/>
<circle cx="1679.78" cy="494.34" r="4.38" fill="#F4BEBD"/>
<ellipse cx="1706.06" cy="494.34" rx="4.38" ry="4.38" fill="#F4BEBD"/>
<circle cx="1732.34" cy="494.34" r="4.38" fill="#F4BEBD"/>
<ellipse cx="1758.62" cy="494.34" rx="4.38" ry="4.38" fill="#F4BEBD"/>
<ellipse cx="1784.9" cy="494.34" rx="4.38" ry="4.38" fill="#F4BEBD"/>
<circle cx="1811.18" cy="494.34" r="4.38" fill="#F4BEBD"/>
<ellipse cx="1548.38" cy="520.62" rx="4.38" ry="4.38" fill="#F4BEBD"/>
<ellipse cx="1574.66" cy="520.62" rx="4.38" ry="4.38" fill="#F4BEBD"/>
<ellipse cx="1600.94" cy="520.62" rx="4.38" ry="4.38" fill="#F4BEBD"/>
<ellipse cx="1627.22" cy="520.62" rx="4.38" ry="4.38" fill="#F4BEBD"/>
<circle cx="1653.5" cy="520.62" r="4.38" fill="#F4BEBD"/>
<ellipse cx="1679.78" cy="520.62" rx="4.38" ry="4.38" fill="#F4BEBD"/>
<circle cx="1706.06" cy="520.62" r="4.38" fill="#F4BEBD"/>
<ellipse cx="1732.34" cy="520.62" rx="4.38" ry="4.38" fill="#F4BEBD"/>
<circle cx="1758.62" cy="520.62" r="4.38" fill="#F4BEBD"/>
<circle cx="1784.9" cy="520.62" r="4.38" fill="#F4BEBD"/>
<ellipse cx="1811.18" cy="520.62" rx="4.38" ry="4.38" fill="#F4BEBD"/>
<ellipse cx="1548.38" cy="546.9" rx="4.38" ry="4.38" fill="#F4BEBD"/>
<ellipse cx="1574.66" cy="546.9" rx="4.38" ry="4.38" fill="#F4BEBD"/>
<ellipse cx="1600.94" cy="546.9" rx="4.38" ry="4.38" fill="#F4BEBD"/>
<ellipse cx="1627.22" cy="546.9" rx="4.38" ry="4.38" fill="#F4BEBD"/>
<circle cx="1653.5" cy="546.9" r="4.38" fill="#F4BEBD"/>
<ellipse cx="1679.78" cy="546.9" rx="4.38" ry="4.38" fill="#F4BEBD"/>
<circle cx="1706.06" cy="546.9" r="4.38" fill="#F4BEBD"/>
<ellipse cx="1732.34" cy="546.9" rx="4.38" ry="4.38" fill="#F4BEBD"/>
<circle cx="1758.62" cy="546.9" r="4.38" fill="#F4BEBD"/>
<circle cx="1784.9" cy="546.9" r="4.38" fill="#F4BEBD"/>
<ellipse cx="1811.18" cy="546.9" rx="4.38" ry="4.38" fill="#F4BEBD"/>
<ellipse cx="1548.38" cy="573.18" rx="4.38" ry="4.38" fill="#F4BEBD"/>
<ellipse cx="1574.66" cy="573.18" rx="4.38" ry="4.38" fill="#F4BEBD"/>
<ellipse cx="1600.94" cy="573.18" rx="4.38" ry="4.38" fill="#F4BEBD"/>
<ellipse cx="1627.22" cy="573.18" rx="4.38" ry="4.38" fill="#F4BEBD"/>
<ellipse cx="1653.5" cy="573.18" rx="4.38" ry="4.38" fill="#F4BEBD"/>
<circle cx="1679.78" cy="573.18" r="4.38" fill="#F4BEBD"/>
<ellipse cx="1706.06" cy="573.18" rx="4.38" ry="4.38" fill="#F4BEBD"/>
<circle cx="1732.34" cy="573.18" r="4.38" fill="#F4BEBD"/>
<ellipse cx="1758.62" cy="573.18" rx="4.38" ry="4.38" fill="#F4BEBD"/>
<ellipse cx="1784.9" cy="573.18" rx="4.38" ry="4.38" fill="#F4BEBD"/>
<circle cx="1811.18" cy="573.18" r="4.38" fill="#F4BEBD"/>
</g>
<circle opacity="0.2" cx="1430" cy="371" r="173" fill="black"/>
<path d="M379 658C379 639.221 382.699 620.626 389.885 603.276C397.072 585.927 407.605 570.162 420.884 556.884C434.163 543.605 449.927 533.072 467.276 525.885C484.626 518.699 503.221 515 522 515L522 658L379 658Z" fill="#221668"/>
<path opacity="0.3" d="M665 658C665 676.779 661.301 695.374 654.115 712.724C646.928 730.073 636.395 745.837 623.116 759.116C609.837 772.395 594.073 782.928 576.724 790.115C559.374 797.301 540.779 801 522 801V658H665Z" fill="#BBCFF5"/>
<g opacity="0.3">
<circle cx="254.955" cy="589.955" r="2.955" fill="#F4BEBD"/>
<ellipse cx="272.685" cy="589.955" rx="2.955" ry="2.955" fill="#F4BEBD"/>
<ellipse cx="290.415" cy="589.955" rx="2.955" ry="2.955" fill="#F4BEBD"/>
<ellipse cx="308.145" cy="589.955" rx="2.955" ry="2.955" fill="#F4BEBD"/>
<ellipse cx="325.876" cy="589.955" rx="2.955" ry="2.955" fill="#F4BEBD"/>
<ellipse cx="343.604" cy="589.955" rx="2.95501" ry="2.955" fill="#F4BEBD"/>
<ellipse cx="361.335" cy="589.955" rx="2.95499" ry="2.955" fill="#F4BEBD"/>
<ellipse cx="379.064" cy="589.955" rx="2.95501" ry="2.955" fill="#F4BEBD"/>
<ellipse cx="396.795" cy="589.955" rx="2.955" ry="2.955" fill="#F4BEBD"/>
<ellipse cx="414.525" cy="589.955" rx="2.95499" ry="2.955" fill="#F4BEBD"/>
<ellipse cx="432.255" cy="589.955" rx="2.95502" ry="2.955" fill="#F4BEBD"/>
<ellipse cx="254.955" cy="607.685" rx="2.955" ry="2.955" fill="#F4BEBD"/>
<ellipse cx="272.685" cy="607.685" rx="2.955" ry="2.955" fill="#F4BEBD"/>
<ellipse cx="290.415" cy="607.685" rx="2.955" ry="2.955" fill="#F4BEBD"/>
<ellipse cx="308.145" cy="607.685" rx="2.955" ry="2.955" fill="#F4BEBD"/>
<ellipse cx="325.876" cy="607.685" rx="2.955" ry="2.955" fill="#F4BEBD"/>
<ellipse cx="343.604" cy="607.685" rx="2.95501" ry="2.955" fill="#F4BEBD"/>
<ellipse cx="361.335" cy="607.685" rx="2.95499" ry="2.955" fill="#F4BEBD"/>
<ellipse cx="379.064" cy="607.685" rx="2.95501" ry="2.955" fill="#F4BEBD"/>
<ellipse cx="396.795" cy="607.685" rx="2.955" ry="2.955" fill="#F4BEBD"/>
<ellipse cx="414.525" cy="607.685" rx="2.95499" ry="2.955" fill="#F4BEBD"/>
<ellipse cx="432.255" cy="607.685" rx="2.95502" ry="2.955" fill="#F4BEBD"/>
<ellipse cx="254.955" cy="625.415" rx="2.955" ry="2.955" fill="#F4BEBD"/>
<ellipse cx="272.685" cy="625.415" rx="2.955" ry="2.955" fill="#F4BEBD"/>
<ellipse cx="290.415" cy="625.415" rx="2.955" ry="2.955" fill="#F4BEBD"/>
<ellipse cx="308.145" cy="625.415" rx="2.955" ry="2.955" fill="#F4BEBD"/>
<ellipse cx="325.876" cy="625.415" rx="2.955" ry="2.955" fill="#F4BEBD"/>
<ellipse cx="343.604" cy="625.415" rx="2.95501" ry="2.955" fill="#F4BEBD"/>
<ellipse cx="361.335" cy="625.415" rx="2.95499" ry="2.955" fill="#F4BEBD"/>
<ellipse cx="379.064" cy="625.415" rx="2.95501" ry="2.955" fill="#F4BEBD"/>
<ellipse cx="396.795" cy="625.415" rx="2.955" ry="2.955" fill="#F4BEBD"/>
<ellipse cx="414.525" cy="625.415" rx="2.95499" ry="2.955" fill="#F4BEBD"/>
<ellipse cx="432.255" cy="625.415" rx="2.95502" ry="2.955" fill="#F4BEBD"/>
<ellipse cx="254.955" cy="643.145" rx="2.955" ry="2.955" fill="#F4BEBD"/>
<ellipse cx="272.685" cy="643.145" rx="2.955" ry="2.955" fill="#F4BEBD"/>
<circle cx="290.415" cy="643.145" r="2.955" fill="#F4BEBD"/>
<circle cx="308.145" cy="643.145" r="2.955" fill="#F4BEBD"/>
<ellipse cx="325.876" cy="643.145" rx="2.955" ry="2.955" fill="#F4BEBD"/>
<ellipse cx="343.604" cy="643.145" rx="2.95501" ry="2.955" fill="#F4BEBD"/>
<ellipse cx="361.335" cy="643.145" rx="2.95499" ry="2.955" fill="#F4BEBD"/>
<ellipse cx="379.064" cy="643.145" rx="2.95501" ry="2.955" fill="#F4BEBD"/>
<circle cx="396.795" cy="643.145" r="2.955" fill="#F4BEBD"/>
<ellipse cx="414.525" cy="643.145" rx="2.95499" ry="2.955" fill="#F4BEBD"/>
<ellipse cx="432.255" cy="643.145" rx="2.95502" ry="2.955" fill="#F4BEBD"/>
<ellipse cx="254.955" cy="660.875" rx="2.955" ry="2.95501" fill="#F4BEBD"/>
<ellipse cx="272.685" cy="660.875" rx="2.955" ry="2.95501" fill="#F4BEBD"/>
<ellipse cx="290.415" cy="660.875" rx="2.955" ry="2.95501" fill="#F4BEBD"/>
<ellipse cx="308.145" cy="660.875" rx="2.955" ry="2.95501" fill="#F4BEBD"/>
<ellipse cx="325.876" cy="660.875" rx="2.955" ry="2.95501" fill="#F4BEBD"/>
<ellipse cx="343.604" cy="660.875" rx="2.95501" ry="2.95501" fill="#F4BEBD"/>
<ellipse cx="361.335" cy="660.875" rx="2.95499" ry="2.95501" fill="#F4BEBD"/>
<circle cx="379.064" cy="660.875" r="2.95501" fill="#F4BEBD"/>
<ellipse cx="396.795" cy="660.875" rx="2.955" ry="2.95501" fill="#F4BEBD"/>
<ellipse cx="414.525" cy="660.875" rx="2.95499" ry="2.95501" fill="#F4BEBD"/>
<ellipse cx="432.255" cy="660.875" rx="2.95502" ry="2.95501" fill="#F4BEBD"/>
<ellipse cx="254.955" cy="678.605" rx="2.955" ry="2.95501" fill="#F4BEBD"/>
<ellipse cx="272.685" cy="678.605" rx="2.955" ry="2.95501" fill="#F4BEBD"/>
<ellipse cx="290.415" cy="678.605" rx="2.955" ry="2.95501" fill="#F4BEBD"/>
<ellipse cx="308.145" cy="678.605" rx="2.955" ry="2.95501" fill="#F4BEBD"/>
<ellipse cx="325.876" cy="678.605" rx="2.955" ry="2.95501" fill="#F4BEBD"/>
<ellipse cx="343.604" cy="678.605" rx="2.95501" ry="2.95501" fill="#F4BEBD"/>
<ellipse cx="361.335" cy="678.605" rx="2.95499" ry="2.95501" fill="#F4BEBD"/>
<circle cx="379.064" cy="678.605" r="2.95501" fill="#F4BEBD"/>
<ellipse cx="396.795" cy="678.605" rx="2.955" ry="2.95501" fill="#F4BEBD"/>
<ellipse cx="414.525" cy="678.605" rx="2.95499" ry="2.95501" fill="#F4BEBD"/>
<ellipse cx="432.255" cy="678.605" rx="2.95502" ry="2.95501" fill="#F4BEBD"/>
<ellipse cx="254.955" cy="696.335" rx="2.955" ry="2.95499" fill="#F4BEBD"/>
<ellipse cx="272.685" cy="696.335" rx="2.955" ry="2.95499" fill="#F4BEBD"/>
<ellipse cx="290.415" cy="696.335" rx="2.955" ry="2.95499" fill="#F4BEBD"/>
<ellipse cx="308.145" cy="696.335" rx="2.955" ry="2.95499" fill="#F4BEBD"/>
<ellipse cx="325.876" cy="696.335" rx="2.955" ry="2.95499" fill="#F4BEBD"/>
<ellipse cx="343.604" cy="696.335" rx="2.95501" ry="2.95499" fill="#F4BEBD"/>
<ellipse cx="361.335" cy="696.335" rx="2.95499" ry="2.95499" fill="#F4BEBD"/>
<ellipse cx="379.064" cy="696.335" rx="2.95501" ry="2.95499" fill="#F4BEBD"/>
<ellipse cx="396.795" cy="696.335" rx="2.955" ry="2.95499" fill="#F4BEBD"/>
<circle cx="414.525" cy="696.335" r="2.95499" fill="#F4BEBD"/>
<ellipse cx="432.255" cy="696.335" rx="2.95502" ry="2.95499" fill="#F4BEBD"/>
<ellipse cx="254.955" cy="714.065" rx="2.955" ry="2.95501" fill="#F4BEBD"/>
<ellipse cx="272.685" cy="714.065" rx="2.955" ry="2.95501" fill="#F4BEBD"/>
<ellipse cx="290.415" cy="714.065" rx="2.955" ry="2.95501" fill="#F4BEBD"/>
<ellipse cx="308.145" cy="714.065" rx="2.955" ry="2.95501" fill="#F4BEBD"/>
<ellipse cx="325.876" cy="714.065" rx="2.955" ry="2.95501" fill="#F4BEBD"/>
<ellipse cx="343.604" cy="714.065" rx="2.95501" ry="2.95501" fill="#F4BEBD"/>
<ellipse cx="361.335" cy="714.065" rx="2.95499" ry="2.95501" fill="#F4BEBD"/>
<circle cx="379.064" cy="714.065" r="2.95501" fill="#F4BEBD"/>
<ellipse cx="396.795" cy="714.065" rx="2.955" ry="2.95501" fill="#F4BEBD"/>
<ellipse cx="414.525" cy="714.065" rx="2.95499" ry="2.95501" fill="#F4BEBD"/>
<ellipse cx="432.255" cy="714.065" rx="2.95502" ry="2.95501" fill="#F4BEBD"/>
<ellipse cx="254.955" cy="731.795" rx="2.955" ry="2.955" fill="#F4BEBD"/>
<ellipse cx="272.685" cy="731.795" rx="2.955" ry="2.955" fill="#F4BEBD"/>
<circle cx="290.415" cy="731.795" r="2.955" fill="#F4BEBD"/>
<circle cx="308.145" cy="731.795" r="2.955" fill="#F4BEBD"/>
<ellipse cx="325.876" cy="731.795" rx="2.955" ry="2.955" fill="#F4BEBD"/>
<ellipse cx="343.604" cy="731.795" rx="2.95501" ry="2.955" fill="#F4BEBD"/>
<ellipse cx="361.335" cy="731.795" rx="2.95499" ry="2.955" fill="#F4BEBD"/>
<ellipse cx="379.064" cy="731.795" rx="2.95501" ry="2.955" fill="#F4BEBD"/>
<circle cx="396.795" cy="731.795" r="2.955" fill="#F4BEBD"/>
<ellipse cx="414.525" cy="731.795" rx="2.95499" ry="2.955" fill="#F4BEBD"/>
<ellipse cx="432.255" cy="731.795" rx="2.95502" ry="2.955" fill="#F4BEBD"/>
<ellipse cx="254.955" cy="749.525" rx="2.955" ry="2.95501" fill="#F4BEBD"/>
<ellipse cx="272.685" cy="749.525" rx="2.955" ry="2.95501" fill="#F4BEBD"/>
<ellipse cx="290.415" cy="749.525" rx="2.955" ry="2.95501" fill="#F4BEBD"/>
<ellipse cx="308.145" cy="749.525" rx="2.955" ry="2.95501" fill="#F4BEBD"/>
<ellipse cx="325.876" cy="749.525" rx="2.955" ry="2.95501" fill="#F4BEBD"/>
<circle cx="343.604" cy="749.525" r="2.95501" fill="#F4BEBD"/>
<ellipse cx="361.335" cy="749.525" rx="2.95499" ry="2.95501" fill="#F4BEBD"/>
<ellipse cx="379.064" cy="749.525" rx="2.95501" ry="2.95501" fill="#F4BEBD"/>
<ellipse cx="396.795" cy="749.525" rx="2.955" ry="2.95501" fill="#F4BEBD"/>
<ellipse cx="414.525" cy="749.525" rx="2.95499" ry="2.95501" fill="#F4BEBD"/>
<ellipse cx="432.255" cy="749.525" rx="2.95502" ry="2.95501" fill="#F4BEBD"/>
<ellipse cx="254.955" cy="767.255" rx="2.955" ry="2.955" fill="#F4BEBD"/>
<ellipse cx="272.685" cy="767.255" rx="2.955" ry="2.955" fill="#F4BEBD"/>
<circle cx="290.415" cy="767.255" r="2.955" fill="#F4BEBD"/>
<circle cx="308.145" cy="767.255" r="2.955" fill="#F4BEBD"/>
<ellipse cx="325.876" cy="767.255" rx="2.955" ry="2.955" fill="#F4BEBD"/>
<ellipse cx="343.604" cy="767.255" rx="2.95501" ry="2.955" fill="#F4BEBD"/>
<ellipse cx="361.335" cy="767.255" rx="2.95499" ry="2.955" fill="#F4BEBD"/>
<ellipse cx="379.064" cy="767.255" rx="2.95501" ry="2.955" fill="#F4BEBD"/>
<circle cx="396.795" cy="767.255" r="2.955" fill="#F4BEBD"/>
<ellipse cx="414.525" cy="767.255" rx="2.95499" ry="2.955" fill="#F4BEBD"/>
<ellipse cx="432.255" cy="767.255" rx="2.95502" ry="2.955" fill="#F4BEBD"/>
</g>
<path d="M269.5 4.30042e-05C323.67 4.06363e-05 377.31 10.7473 427.357 31.6281C477.404 52.5089 522.877 83.1144 561.182 121.697C599.486 160.28 629.87 206.084 650.6 256.495C671.33 306.906 682 360.936 682 415.5L269.5 415.5L269.5 4.30042e-05Z" fill="#3A42B6"/>
<path d="M270 300C285.627 300 301.102 303.078 315.539 309.058C329.977 315.039 343.096 323.804 354.146 334.854C365.196 345.904 373.961 359.023 379.942 373.461C385.922 387.898 389 403.373 389 419L270 419L270 300Z" fill="#1F2978"/>
<path d="M1539 668L1410 668L1539 796L1539 668Z" fill="#0454BE"/>
</svg>
